<svg width="1440" height="780" viewBox="0 0 1440 780" fill="none" xmlns="http://www.w3.org/2000/svg">
<rect width="1440" height="780" fill="#FFF9C6"/>
<mask id="mask0_1_466" style="mask-type:alpha" maskUnits="userSpaceOnUse" x="0" y="0" width="1440" height="780">
<rect width="1440" height="780" fill="#D8BFFF"/>
</mask>
<g mask="url(#mask0_1_466)">
<path d="M381.89 348.675C858.992 948.25 1005.76 744.077 1568.77 625.701L1820.62 666.823C1693.95 718.489 1354.64 818.339 1010.79 804.403C580.99 786.984 285.368 276.32 39.5433 176.878C-157.116 97.3249 -413.028 423.072 -516.402 595.89C-376.005 313.627 0.208774 -130.984 381.89 348.675Z" fill="url(#paint0_linear_1_466)"/>
<path fill-rule="evenodd" clip-rule="evenodd" d="M-16.9655 128.667C-16.8698 130.874 -18.5814 132.74 -20.7885 132.836C-25.7368 133.051 -30.6692 133.377 -35.5851 133.813C-37.7856 134.008 -39.7276 132.383 -39.9227 130.182C-40.1179 127.982 -38.4922 126.04 -36.2917 125.845C-31.2571 125.398 -26.2047 125.063 -21.1349 124.844C-18.9279 124.748 -17.0612 126.46 -16.9655 128.667ZM5.10193 128.722C5.20923 126.515 7.08496 124.813 9.2915 124.921C14.3359 125.166 19.3952 125.528 24.4687 126.011C26.6679 126.22 28.2812 128.172 28.0721 130.371C27.863 132.571 25.9107 134.184 23.7115 133.975C18.7611 133.504 13.8247 133.151 8.90289 132.911C6.69635 132.804 4.99457 130.928 5.10193 128.722ZM-61.8079 133.105C-61.4207 135.28 -62.8699 137.357 -65.0448 137.745C-69.9211 138.613 -74.7797 139.585 -79.6198 140.659C-81.7765 141.138 -83.9128 139.777 -84.3913 137.621C-84.8698 135.464 -83.5093 133.328 -81.3526 132.849C-76.4044 131.751 -71.4357 130.757 -66.4471 129.868C-64.2721 129.481 -62.1951 130.93 -61.8079 133.105ZM49.8901 133.462C50.2991 131.291 52.3906 129.863 54.5616 130.272C59.5541 131.212 64.5583 132.272 69.5739 133.454C71.7241 133.961 73.0565 136.115 72.5498 138.265C72.0431 140.415 69.8892 141.748 67.739 141.241C62.8405 140.087 57.9541 139.052 53.0803 138.134C50.9094 137.724 49.4811 135.633 49.8901 133.462ZM-105.722 143.274C-105.073 145.386 -106.258 147.624 -108.369 148.274C-113.108 149.732 -117.827 151.285 -122.526 152.928C-124.611 153.658 -126.893 152.559 -127.623 150.473C-128.352 148.388 -127.253 146.106 -125.168 145.377C-120.375 143.7 -115.559 142.116 -110.722 140.628C-108.611 139.978 -106.372 141.163 -105.722 143.274ZM93.7266 144.244C94.4169 142.145 96.6778 141.004 98.7762 141.694C103.524 143.256 108.281 144.931 113.046 146.719C115.114 147.495 116.161 149.801 115.385 151.87C114.609 153.938 112.303 154.985 110.235 154.209C105.572 152.459 100.919 150.821 96.2761 149.293C94.1776 148.603 93.0361 146.342 93.7266 144.244ZM-48.9835 156.693C-48.8412 154.488 -46.9387 152.816 -44.7342 152.959C-39.4723 153.298 -34.2339 153.867 -29.0229 154.675C-26.8399 155.013 -25.3444 157.057 -25.6826 159.24C-26.0208 161.423 -28.0648 162.918 -30.2479 162.58C-35.2188 161.81 -40.2202 161.267 -45.2494 160.942C-47.454 160.8 -49.1258 158.897 -48.9835 156.693ZM-71.8496 157.148C-71.6311 159.346 -73.2361 161.305 -75.4344 161.524C-80.4255 162.02 -85.4385 162.708 -90.4706 163.581C-92.6472 163.958 -94.7178 162.5 -95.0954 160.323C-95.473 158.147 -94.0146 156.076 -91.8379 155.698C-86.6219 154.794 -81.4167 154.079 -76.2256 153.563C-74.0273 153.344 -72.0681 154.949 -71.8496 157.148ZM-148.174 158.51C-147.298 160.538 -148.232 162.892 -150.26 163.768C-154.81 165.733 -159.339 167.781 -163.847 169.908C-165.844 170.851 -168.228 169.996 -169.171 167.998C-170.114 166.001 -169.259 163.617 -167.261 162.674C-162.675 160.509 -158.065 158.425 -153.432 156.424C-151.404 155.548 -149.05 156.482 -148.174 158.51ZM135.838 160.498C136.774 158.497 139.156 157.635 141.156 158.572C145.633 160.668 150.115 162.867 154.603 165.172C156.568 166.181 157.343 168.592 156.334 170.557C155.324 172.522 152.913 173.297 150.948 172.288C146.546 170.028 142.151 167.871 137.764 165.817C135.763 164.88 134.901 162.498 135.838 160.498ZM-3.50983 164.8C-2.77686 162.716 -0.493225 161.621 1.59076 162.354C4.08423 163.231 6.56854 164.169 9.04333 165.17C11.3542 166.105 13.6685 167.075 15.9862 168.08C18.013 168.959 18.9437 171.315 18.0649 173.341C17.186 175.368 14.8306 176.299 12.8038 175.42C10.545 174.441 8.29156 173.496 6.04333 172.586C3.68262 171.631 1.31348 170.736 -1.06366 169.9C-3.14764 169.167 -4.2428 166.884 -3.50983 164.8ZM-117.328 165.705C-116.68 167.817 -117.867 170.054 -119.979 170.702C-124.779 172.174 -129.589 173.798 -134.409 175.566C-136.483 176.327 -138.781 175.263 -139.542 173.189C-140.303 171.115 -139.238 168.817 -137.164 168.056C-132.215 166.24 -127.268 164.57 -122.325 163.054C-120.213 162.406 -117.976 163.593 -117.328 165.705ZM-188.846 178.061C-187.781 179.996 -188.486 182.429 -190.421 183.494C-194.755 185.88 -199.067 188.337 -203.357 190.862C-205.261 191.983 -207.712 191.348 -208.833 189.445C-209.954 187.541 -209.319 185.089 -207.416 183.968C-203.061 181.405 -198.682 178.909 -194.279 176.486C-192.344 175.42 -189.911 176.126 -188.846 178.061ZM175.675 181.37C176.817 179.479 179.276 178.873 181.167 180.016C185.413 182.583 189.664 185.246 193.918 188.007C195.771 189.209 196.299 191.686 195.096 193.539C193.894 195.393 191.417 195.92 189.563 194.717C185.38 192.002 181.201 189.385 177.029 186.862C175.138 185.72 174.532 183.261 175.675 181.37ZM-160.664 182.125C-159.714 184.119 -160.561 186.506 -162.555 187.456C-167.101 189.621 -171.648 191.903 -176.197 194.295C-178.152 195.324 -180.571 194.573 -181.599 192.618C-182.628 190.663 -181.877 188.244 -179.922 187.215C-175.283 184.775 -170.64 182.446 -165.995 180.234C-164.001 179.284 -161.614 180.13 -160.664 182.125ZM38.0043 183.081C39.0527 181.137 41.479 180.411 43.4235 181.459C47.8828 183.864 52.3562 186.383 56.8441 189.011C58.7504 190.128 59.3907 192.578 58.2743 194.484C57.1578 196.391 54.7075 197.031 52.8012 195.914C48.3901 193.331 43.9987 190.858 39.6266 188.501C37.6821 187.452 36.9557 185.026 38.0043 183.081ZM-227.549 201.17C-226.327 203.01 -226.828 205.493 -228.668 206.715C-232.812 209.466 -236.932 212.278 -241.028 215.149C-242.837 216.416 -245.331 215.978 -246.599 214.169C-247.867 212.36 -247.428 209.865 -245.619 208.597C-241.469 205.689 -237.294 202.839 -233.093 200.05C-231.253 198.828 -228.77 199.33 -227.549 201.17ZM-201.511 204.026C-200.35 205.906 -200.932 208.371 -202.811 209.532C-207.112 212.189 -211.409 214.936 -215.701 217.769C-217.545 218.986 -220.026 218.478 -221.243 216.634C-222.46 214.79 -221.952 212.309 -220.108 211.092C-215.752 208.217 -211.387 205.426 -207.016 202.726C-205.137 201.565 -202.672 202.147 -201.511 204.026ZM77.0648 206.271C78.2889 204.432 80.772 203.933 82.611 205.157C86.7553 207.916 90.9131 210.758 95.0847 213.678C96.8943 214.945 97.3342 217.44 96.0672 219.249C94.8002 221.059 92.306 221.499 90.4963 220.232C86.3735 217.345 82.2676 214.539 78.1782 211.817C76.3392 210.593 75.8407 208.11 77.0648 206.271ZM213.281 206.147C214.592 204.369 217.096 203.991 218.874 205.302C222.872 208.251 226.874 211.288 230.878 214.415C232.619 215.775 232.928 218.289 231.568 220.03C230.208 221.771 227.695 222.08 225.953 220.72C222.007 217.638 218.064 214.645 214.125 211.74C212.348 210.429 211.969 207.925 213.281 206.147ZM-264.363 227.264C-263.012 229.012 -263.333 231.524 -265.08 232.875C-269.02 235.921 -272.935 239.019 -276.825 242.167C-278.543 243.556 -281.061 243.29 -282.451 241.573C-283.84 239.855 -283.574 237.337 -281.857 235.947C-277.922 232.764 -273.961 229.629 -269.974 226.546C-268.227 225.195 -265.714 225.516 -264.363 227.264ZM-240.029 229.789C-238.716 231.566 -239.092 234.07 -240.869 235.383C-244.955 238.403 -249.032 241.492 -253.099 244.648C-254.845 246.002 -257.357 245.684 -258.712 243.939C-260.066 242.194 -259.749 239.681 -258.003 238.327C-253.888 235.134 -249.761 232.007 -245.623 228.949C-243.846 227.636 -241.342 228.012 -240.029 229.789ZM114.006 232.373C115.343 230.615 117.853 230.273 119.611 231.61C123.624 234.662 127.651 237.779 131.691 240.957C133.427 242.323 133.727 244.838 132.362 246.574C130.996 248.31 128.481 248.61 126.745 247.245C122.737 244.092 118.745 241.002 114.769 237.978C113.01 236.641 112.669 234.131 114.006 232.373ZM248.651 234.109C250.098 232.44 252.625 232.261 254.294 233.708C258.038 236.955 261.784 240.282 265.531 243.69C267.166 245.176 267.286 247.706 265.8 249.341C264.313 250.975 261.784 251.095 260.149 249.609C256.447 246.242 252.748 242.957 249.052 239.752C247.383 238.305 247.204 235.778 248.651 234.109ZM-299.333 255.826C-297.874 257.485 -298.036 260.012 -299.695 261.471C-303.427 264.754 -307.134 268.079 -310.815 271.444C-312.446 272.935 -314.976 272.822 -316.466 271.191C-317.957 269.561 -317.844 267.031 -316.213 265.54C-312.495 262.14 -308.749 258.781 -304.978 255.464C-303.319 254.005 -300.792 254.167 -299.333 255.826ZM-276.509 258.375C-275.083 260.062 -275.294 262.586 -276.982 264.013C-280.88 267.309 -284.767 270.659 -288.638 274.06C-290.298 275.518 -292.826 275.354 -294.283 273.694C-295.741 272.034 -295.578 269.507 -293.918 268.049C-290.009 264.616 -286.085 261.233 -282.146 257.903C-280.459 256.477 -277.935 256.688 -276.509 258.375ZM149.653 260.581C151.066 258.882 153.588 258.65 155.286 260.062C159.109 263.24 162.944 266.466 166.793 269.738C168.476 271.169 168.68 273.694 167.249 275.377C165.818 277.06 163.293 277.264 161.61 275.833C157.783 272.579 153.971 269.372 150.172 266.214C148.473 264.801 148.241 262.279 149.653 260.581ZM281.906 264.666C283.463 263.099 285.995 263.091 287.562 264.648C291.055 268.118 294.548 271.66 298.043 275.274C299.578 276.863 299.536 279.395 297.948 280.93C296.359 282.466 293.827 282.423 292.292 280.835C288.834 277.258 285.378 273.755 281.924 270.323C280.357 268.766 280.349 266.233 281.906 264.666ZM-332.495 286.4C-330.946 287.975 -330.967 290.508 -332.542 292.056C-336.097 295.552 -339.624 299.082 -343.124 302.644C-344.672 304.22 -347.205 304.242 -348.781 302.694C-350.357 301.146 -350.379 298.613 -348.831 297.037C-345.299 293.443 -341.739 289.88 -338.152 286.352C-336.577 284.804 -334.044 284.825 -332.495 286.4ZM-311.223 289.111C-309.709 290.72 -309.786 293.251 -311.395 294.765C-315.126 298.276 -318.841 301.829 -322.537 305.419C-324.122 306.958 -326.654 306.921 -328.194 305.336C-329.733 303.752 -329.696 301.219 -328.111 299.68C-324.385 296.062 -320.64 292.48 -316.877 288.939C-315.269 287.425 -312.737 287.502 -311.223 289.111ZM184.048 289.946C185.51 288.289 188.038 288.132 189.694 289.593C193.467 292.923 197.252 296.29 201.051 299.693C202.696 301.167 202.835 303.696 201.361 305.341C199.887 306.986 197.358 307.125 195.712 305.651C191.928 302.261 188.158 298.907 184.401 295.592C182.745 294.13 182.587 291.602 184.048 289.946ZM313.236 297.376C314.882 295.903 317.411 296.042 318.884 297.688C322.134 301.318 325.384 305.012 328.635 308.77C330.08 310.441 329.897 312.967 328.226 314.412C326.555 315.857 324.029 315.674 322.584 314.003C319.363 310.279 316.143 306.62 312.924 303.024C311.45 301.379 311.59 298.85 313.236 297.376ZM-364.001 318.706C-362.375 320.202 -362.27 322.733 -363.766 324.358C-367.148 328.032 -370.501 331.733 -373.825 335.459C-375.296 337.108 -377.825 337.252 -379.473 335.781C-381.122 334.31 -381.266 331.782 -379.795 330.133C-376.443 326.377 -373.062 322.645 -369.653 318.941C-368.157 317.315 -365.626 317.21 -364.001 318.706ZM217.793 320.254C219.287 318.626 221.817 318.518 223.444 320.011C227.153 323.414 230.873 326.846 234.607 330.305C236.227 331.806 236.324 334.337 234.822 335.958C233.321 337.578 230.79 337.675 229.17 336.174C225.445 332.723 221.733 329.299 218.035 325.905C216.408 324.412 216.299 321.881 217.793 320.254ZM-344.383 321.532C-342.799 323.071 -342.763 325.604 -344.302 327.188C-347.876 330.865 -351.429 334.572 -354.961 338.305C-356.479 339.91 -359.011 339.98 -360.616 338.462C-362.22 336.944 -362.291 334.412 -360.772 332.807C-357.217 329.049 -353.639 325.316 -350.04 321.613C-348.5 320.029 -345.968 319.992 -344.383 321.532ZM342.517 331.51C344.234 330.121 346.753 330.387 348.142 332.104C349.768 334.115 351.394 336.141 353.02 338.185C354.629 340.206 356.234 342.219 357.835 344.223C359.215 345.948 358.934 348.465 357.208 349.845C355.482 351.224 352.965 350.943 351.586 349.217C349.981 347.209 348.373 345.192 346.76 343.166C345.147 341.139 343.535 339.129 341.922 337.135C340.533 335.418 340.799 332.899 342.517 331.51ZM251.087 351.143C252.599 349.533 255.131 349.454 256.741 350.967C260.379 354.386 264.03 357.825 267.693 361.284C269.299 362.801 269.372 365.332 267.855 366.939C266.338 368.545 263.807 368.617 262.2 367.101C258.542 363.646 254.896 360.211 251.263 356.797C249.653 355.284 249.574 352.753 251.087 351.143ZM-393.931 352.484C-392.239 353.905 -392.02 356.428 -393.442 358.119C-396.658 361.947 -399.845 365.795 -403.002 369.661C-404.399 371.372 -406.918 371.627 -408.63 370.23C-410.341 368.833 -410.596 366.313 -409.199 364.602C-406.019 360.707 -402.808 356.83 -399.566 352.972C-398.145 351.281 -395.622 351.062 -393.931 352.484ZM-376.146 355.304C-374.504 356.782 -374.37 359.311 -375.848 360.953C-379.287 364.776 -382.701 368.617 -386.09 372.474C-387.548 374.134 -390.075 374.297 -391.735 372.839C-393.395 371.381 -393.558 368.854 -392.1 367.194C-388.691 363.314 -385.256 359.449 -381.795 355.603C-380.318 353.96 -377.789 353.827 -376.146 355.304ZM371.245 367.251C372.958 365.856 375.478 366.114 376.872 367.828C380.016 371.69 383.145 375.515 386.259 379.305C387.662 381.012 387.415 383.533 385.708 384.935C384.002 386.338 381.481 386.091 380.078 384.385C376.956 380.585 373.819 376.749 370.668 372.878C369.273 371.165 369.532 368.645 371.245 367.251ZM284.014 382.252C285.535 380.65 288.067 380.585 289.669 382.107C293.3 385.556 296.943 389.02 300.598 392.497C302.199 394.019 302.262 396.551 300.739 398.152C299.217 399.753 296.685 399.816 295.084 398.293C291.43 394.817 287.788 391.354 284.159 387.907C282.557 386.385 282.492 383.853 284.014 382.252ZM-422.346 387.512C-420.598 388.862 -420.274 391.374 -421.624 393.123C-424.692 397.097 -427.728 401.085 -430.73 405.084C-432.057 406.85 -434.564 407.207 -436.331 405.88C-438.097 404.554 -438.454 402.046 -437.128 400.28C-434.104 396.253 -431.047 392.237 -427.957 388.234C-426.607 386.486 -424.095 386.162 -422.346 387.512ZM-406.66 390.221C-404.968 391.641 -404.749 394.165 -406.169 395.856C-409.484 399.803 -412.769 403.759 -416.024 407.72C-417.427 409.427 -419.947 409.673 -421.654 408.271C-423.361 406.868 -423.608 404.347 -422.205 402.641C-418.932 398.658 -415.628 394.68 -412.296 390.712C-410.875 389.02 -408.352 388.8 -406.66 390.221ZM399.722 401.818C401.415 400.398 403.938 400.619 405.358 402.312C408.633 406.216 411.891 410.08 415.135 413.904C416.564 415.588 416.357 418.112 414.672 419.541C412.987 420.97 410.463 420.763 409.034 419.078C405.781 415.243 402.513 411.368 399.228 407.453C397.809 405.761 398.03 403.238 399.722 401.818ZM316.85 413.478C318.372 411.876 320.904 411.812 322.505 413.334C326.148 416.797 329.804 420.268 333.471 423.747C335.074 425.267 335.141 427.799 333.621 429.402C332.1 431.005 329.568 431.072 327.966 429.551C324.296 426.07 320.638 422.597 316.994 419.133C315.393 417.611 315.328 415.079 316.85 413.478ZM-449.363 423.71C-447.563 424.99 -447.142 427.488 -448.423 429.288C-451.33 433.373 -454.202 437.465 -457.039 441.559C-458.297 443.375 -460.789 443.828 -462.605 442.569C-464.421 441.311 -464.873 438.819 -463.615 437.003C-460.759 432.882 -457.868 428.763 -454.941 424.65C-453.66 422.85 -451.163 422.429 -449.363 423.71ZM-436.022 426.127C-434.287 427.495 -433.988 430.01 -435.356 431.745C-438.547 435.794 -441.704 439.842 -444.825 443.884C-446.175 445.633 -448.687 445.956 -450.436 444.606C-452.185 443.255 -452.507 440.743 -451.157 438.995C-448.02 434.932 -444.847 430.864 -441.639 426.793C-440.272 425.058 -437.757 424.76 -436.022 426.127ZM428.766 435.97C430.435 434.521 432.961 434.699 434.409 436.368C437.725 440.187 441.025 443.963 444.309 447.698C445.767 449.356 445.605 451.884 443.946 453.343C442.287 454.802 439.76 454.639 438.301 452.98C435.006 449.233 431.695 445.444 428.368 441.612C426.92 439.944 427.098 437.418 428.766 435.97ZM349.76 444.665C351.274 443.057 353.806 442.982 355.414 444.496C359.08 447.95 362.759 451.408 366.45 454.868C368.061 456.379 368.143 458.91 366.632 460.522C365.121 462.134 362.59 462.215 360.978 460.704C357.282 457.239 353.599 453.777 349.928 450.319C348.32 448.805 348.245 446.273 349.76 444.665ZM-474.968 460.896C-473.122 462.109 -472.608 464.589 -473.821 466.435C-476.562 470.608 -479.266 474.779 -481.93 478.945C-483.121 480.806 -485.594 481.349 -487.455 480.159C-489.316 478.968 -489.86 476.495 -488.669 474.634C-485.987 470.441 -483.267 466.243 -480.508 462.043C-479.295 460.197 -476.815 459.683 -474.968 460.896ZM-464.279 462.899C-462.504 464.215 -462.133 466.72 -463.449 468.495C-466.519 472.635 -469.549 476.761 -472.535 480.868C-473.834 482.655 -476.335 483.051 -478.122 481.752C-479.909 480.453 -480.304 477.951 -479.005 476.164C-476.005 472.036 -472.96 467.89 -469.874 463.729C-468.558 461.954 -466.053 461.583 -464.279 462.899ZM458.733 469.934C460.372 468.453 462.902 468.581 464.383 470.22C467.696 473.885 470.992 477.506 474.272 481.083C475.766 482.711 475.656 485.241 474.028 486.734C472.399 488.227 469.869 488.118 468.376 486.49C465.083 482.898 461.773 479.263 458.448 475.584C456.967 473.945 457.094 471.416 458.733 469.934ZM382.87 475.656C384.371 474.034 386.901 473.937 388.523 475.438C392.216 478.857 395.922 482.276 399.64 485.692C401.267 487.187 401.374 489.717 399.88 491.344C398.385 492.971 395.855 493.078 394.228 491.583C390.502 488.16 386.788 484.734 383.088 481.308C381.467 479.807 381.369 477.277 382.87 475.656ZM-497.256 501.789C-497.42 500.643 -498.077 499.578 -499.144 498.931C-501.033 497.787 -503.493 498.39 -504.638 500.28C-507.275 504.633 -509.868 508.974 -512.417 513.3C-513.539 515.203 -512.905 517.656 -511.002 518.777C-509.38 519.733 -507.359 519.414 -506.103 518.12C-505.81 518.739 -505.353 519.291 -504.747 519.706C-502.923 520.952 -500.434 520.485 -499.187 518.661C-496.333 514.487 -493.425 510.277 -490.466 506.037C-489.201 504.225 -489.645 501.732 -491.456 500.467C-493.267 499.203 -495.761 499.646 -497.025 501.458C-497.102 501.568 -497.179 501.679 -497.256 501.789ZM489.218 503.042C490.822 501.523 493.354 501.592 494.873 503.196C498.323 506.84 501.755 510.433 505.17 513.979C506.703 515.57 506.656 518.102 505.065 519.634C503.474 521.167 500.941 521.12 499.409 519.529C495.978 515.967 492.53 512.357 489.064 508.697C487.545 507.093 487.614 504.561 489.218 503.042ZM416.301 506.302C417.781 504.662 420.31 504.532 421.95 506.012C425.681 509.379 429.424 512.74 433.18 516.094C434.828 517.566 434.97 520.095 433.499 521.742C432.027 523.39 429.499 523.533 427.851 522.061C424.084 518.697 420.331 515.327 416.591 511.951C414.95 510.471 414.821 507.942 416.301 506.302ZM520.412 535.279C521.974 533.717 524.507 533.717 526.069 535.279C529.661 538.871 533.235 542.409 536.79 545.892C538.368 547.438 538.394 549.97 536.848 551.548C535.302 553.126 532.77 553.152 531.192 551.606C527.616 548.104 524.023 544.547 520.412 540.936C518.85 539.373 518.85 536.841 520.412 535.279ZM450.166 536.46C451.618 534.796 454.145 534.623 455.81 536.076C459.594 539.377 463.391 542.669 467.201 545.95C468.875 547.391 469.063 549.917 467.622 551.591C466.18 553.265 463.654 553.453 461.98 552.012C458.157 548.719 454.347 545.416 450.55 542.104C448.886 540.652 448.713 538.125 450.166 536.46ZM-521.241 538.465C-521.461 538.267 -521.707 538.09 -521.977 537.94C-523.907 536.866 -526.343 537.561 -527.417 539.491C-529.882 543.922 -532.297 548.331 -534.662 552.712C-535.711 554.656 -534.985 557.083 -533.041 558.132C-532.126 558.626 -531.103 558.727 -530.168 558.492C-528.315 559.625 -525.888 559.072 -524.712 557.233C-522.005 553 -519.228 548.707 -516.383 544.359C-515.173 542.511 -515.691 540.032 -517.539 538.822C-518.682 538.074 -520.065 537.986 -521.241 538.465ZM484.569 565.98C485.986 564.285 488.509 564.06 490.204 565.478C494.058 568.702 497.926 571.911 501.806 575.106C503.512 576.51 503.756 579.03 502.353 580.736C500.949 582.442 498.428 582.686 496.722 581.282C492.825 578.074 488.941 574.851 485.071 571.614C483.377 570.197 483.152 567.674 484.569 565.98ZM552.515 566.571C554.026 564.959 556.557 564.877 558.169 566.388C561.908 569.893 565.627 573.336 569.326 576.719C570.957 578.21 571.07 580.74 569.579 582.371C568.088 584.001 565.558 584.114 563.928 582.623C560.203 579.217 556.46 575.752 552.698 572.225C551.086 570.714 551.005 568.183 552.515 566.571ZM-544.078 577.413C-545.862 576.946 -547.791 577.767 -548.657 579.479C-549.78 581.698 -550.889 583.908 -551.983 586.108L-544.969 589.943C-543.692 587.808 -542.391 585.649 -541.068 583.468C-539.922 581.58 -540.524 579.12 -542.412 577.974C-542.937 577.655 -543.506 577.472 -544.078 577.413ZM519.632 594.718C521.006 592.989 523.523 592.701 525.252 594.076C529.187 597.203 533.135 600.312 537.098 603.401C538.84 604.759 539.151 607.272 537.793 609.015C536.435 610.757 533.921 611.068 532.179 609.71C528.197 606.605 524.229 603.481 520.275 600.339C518.545 598.964 518.257 596.448 519.632 594.718ZM585.733 596.767C587.18 595.098 589.706 594.918 591.375 596.366C595.262 599.737 599.128 603.04 602.974 606.277C604.665 607.699 604.882 610.222 603.46 611.913C602.037 613.603 599.514 613.82 597.824 612.398C593.946 609.135 590.05 605.806 586.134 602.41C584.465 600.962 584.285 598.436 585.733 596.767ZM1530.35 614.968C1534.45 614.099 1538.79 613.978 1542.94 614.656L1550.78 615.937C1552.97 616.293 1554.44 618.349 1554.09 620.529C1553.73 622.709 1551.68 624.188 1549.5 623.832L1541.65 622.551C1538.5 622.037 1535.16 622.126 1532.02 622.794C1529.52 623.323 1527.04 623.854 1524.56 624.387C1522.4 624.851 1520.27 623.477 1519.81 621.317C1519.34 619.157 1520.72 617.03 1522.88 616.566C1525.36 616.032 1527.85 615.499 1530.35 614.968ZM555.456 622.508C556.779 620.739 559.286 620.377 561.055 621.7C565.079 624.709 569.118 627.695 573.17 630.657C574.953 631.96 575.343 634.463 574.039 636.246C572.735 638.03 570.233 638.419 568.449 637.115C564.373 634.136 560.311 631.133 556.264 628.107C554.495 626.784 554.133 624.277 555.456 622.508ZM1577.57 624.364C1577.93 622.183 1579.98 620.705 1582.17 621.061L1597.85 623.622C1600.04 623.978 1601.51 626.034 1601.16 628.215C1600.8 630.395 1598.75 631.874 1596.57 631.518L1580.88 628.956C1578.7 628.6 1577.22 626.544 1577.57 624.364ZM1498.23 626.068C1498.72 628.223 1497.37 630.364 1495.21 630.849C1490.38 631.938 1485.58 633.031 1480.82 634.129C1478.66 634.624 1476.52 633.281 1476.02 631.128C1475.53 628.976 1476.87 626.829 1479.02 626.333C1483.8 625.232 1488.61 624.136 1493.45 623.045C1495.61 622.56 1497.75 623.913 1498.23 626.068ZM620.259 625.612C621.627 623.877 624.142 623.58 625.876 624.948C629.911 628.13 633.924 631.238 637.917 634.273C639.676 635.61 640.018 638.119 638.682 639.878C637.345 641.637 634.836 641.979 633.077 640.642C629.044 637.578 624.993 634.441 620.922 631.23C619.188 629.862 618.891 627.347 620.259 625.612ZM1624.64 632.049C1625 629.869 1627.05 628.39 1629.24 628.746L1644.93 631.308C1647.11 631.664 1648.58 633.72 1648.23 635.9C1647.87 638.08 1645.82 639.559 1643.64 639.203L1627.95 636.641C1625.77 636.285 1624.29 634.229 1624.64 632.049ZM1454.36 636.223C1454.88 638.371 1453.55 640.53 1451.4 641.045C1446.57 642.206 1441.76 643.37 1436.99 644.536C1434.84 645.061 1432.68 643.746 1432.16 641.6C1431.63 639.454 1432.95 637.289 1435.09 636.765C1439.87 635.596 1444.69 634.429 1449.54 633.266C1451.69 632.751 1453.84 634.074 1454.36 636.223ZM1671.71 639.735C1672.07 637.554 1674.13 636.075 1676.31 636.431L1684.15 637.712C1686.53 638.101 1688.78 638.685 1690.89 639.446C1692.97 640.195 1694.05 642.486 1693.3 644.565C1692.55 646.643 1690.26 647.721 1688.18 646.973C1686.54 646.383 1684.77 645.919 1682.86 645.608L1675.02 644.327C1672.84 643.971 1671.36 641.915 1671.71 639.735ZM1410.65 646.949C1411.2 649.09 1409.9 651.266 1407.76 651.807C1402.92 653.031 1398.11 654.257 1393.34 655.482C1391.2 656.032 1389.02 654.742 1388.47 652.603C1387.92 650.463 1389.21 648.283 1391.35 647.734C1396.13 646.506 1400.95 645.278 1405.8 644.052C1407.94 643.51 1410.11 644.807 1410.65 646.949ZM592.135 649.158C593.396 647.344 595.889 646.897 597.702 648.159C601.824 651.026 605.961 653.866 610.112 656.678C611.941 657.916 612.419 660.403 611.181 662.233C609.942 664.062 607.455 664.54 605.626 663.301C601.446 660.471 597.282 657.612 593.134 654.726C591.32 653.464 590.873 650.971 592.135 649.158ZM656.263 652.73C657.531 650.921 660.026 650.482 661.834 651.751C666.012 654.68 670.17 657.53 674.309 660.301C676.145 661.53 676.636 664.014 675.407 665.85C674.178 667.686 671.694 668.177 669.858 666.948C665.671 664.145 661.466 661.263 657.242 658.301C655.433 657.033 654.995 654.538 656.263 652.73ZM1367.08 658.17C1367.65 660.306 1366.37 662.494 1364.24 663.057C1359.4 664.333 1354.6 665.607 1349.82 666.879C1347.69 667.448 1345.5 666.179 1344.93 664.045C1344.36 661.91 1345.63 659.718 1347.76 659.149C1352.54 657.875 1357.35 656.599 1362.2 655.322C1364.33 654.759 1366.52 656.034 1367.08 658.17ZM1705.3 656.369C1707.39 655.644 1709.67 656.748 1710.39 658.835C1711.97 663.367 1712.47 668.206 1711.86 672.933C1711.57 675.124 1709.56 676.668 1707.37 676.383C1705.18 676.097 1703.64 674.09 1703.92 671.899C1704.38 668.419 1704.01 664.831 1702.84 661.46C1702.11 659.373 1703.21 657.093 1705.3 656.369ZM1323.62 669.782C1324.2 671.914 1322.94 674.112 1320.8 674.69C1315.97 676.002 1311.18 677.309 1306.41 678.61C1304.28 679.192 1302.08 677.937 1301.5 675.806C1300.92 673.675 1302.17 671.475 1304.3 670.893C1309.07 669.591 1313.87 668.282 1318.71 666.97C1320.84 666.391 1323.04 667.65 1323.62 669.782ZM629.752 674.458C630.941 672.596 633.415 672.051 635.276 673.241C639.503 675.941 643.745 678.609 648.002 681.244C649.88 682.407 650.461 684.872 649.298 686.751C648.135 688.629 645.67 689.209 643.792 688.047C639.502 685.391 635.228 682.703 630.969 679.982C629.108 678.793 628.562 676.319 629.752 674.458ZM693.868 677.617C695.011 675.726 697.47 675.12 699.36 676.263C703.677 678.872 707.974 681.396 712.255 683.837C714.174 684.931 714.842 687.374 713.748 689.293C712.654 691.212 710.211 691.881 708.292 690.786C703.951 688.311 699.595 685.753 695.222 683.109C693.331 681.966 692.725 679.507 693.868 677.617ZM1280.21 681.647C1280.8 683.777 1279.55 685.979 1277.42 686.565C1273.68 687.594 1269.96 688.617 1266.27 689.635L1263.05 690.521C1260.92 691.107 1258.72 689.856 1258.13 687.727C1257.55 685.597 1258.8 683.395 1260.93 682.808C1265.68 681.499 1270.47 680.179 1275.3 678.852C1277.43 678.266 1279.63 679.517 1280.21 681.647ZM1697.65 690.108C1698.7 692.051 1697.98 694.478 1696.03 695.529C1694.06 696.597 1691.92 697.507 1689.6 698.239C1687.26 698.981 1684.89 699.726 1682.5 700.472C1680.4 701.13 1678.15 699.955 1677.49 697.846C1676.83 695.738 1678.01 693.494 1680.12 692.836C1682.5 692.093 1684.85 691.351 1687.19 690.612C1689.04 690.026 1690.72 689.311 1692.23 688.492C1694.17 687.441 1696.6 688.165 1697.65 690.108ZM1236.84 693.582C1237.42 695.713 1236.17 697.913 1234.03 698.496C1229.22 699.814 1224.44 701.119 1219.7 702.409C1217.57 702.989 1215.37 701.731 1214.79 699.599C1214.21 697.467 1215.47 695.269 1217.6 694.69C1222.34 693.4 1227.11 692.097 1231.92 690.78C1234.05 690.197 1236.25 691.451 1236.84 693.582ZM668.381 698.172C669.486 696.259 671.933 695.604 673.846 696.709C678.191 699.219 682.552 701.692 686.929 704.126C688.86 705.2 689.554 707.636 688.48 709.566C687.406 711.497 684.971 712.191 683.04 711.117C678.625 708.662 674.226 706.167 669.844 703.636C667.931 702.531 667.276 700.085 668.381 698.172ZM733.129 699.667C734.117 697.69 736.519 696.888 738.495 697.876C742.943 700.097 747.375 702.231 751.793 704.278C753.797 705.206 754.669 707.584 753.74 709.589C752.812 711.593 750.434 712.465 748.429 711.536C743.94 709.456 739.437 707.289 734.92 705.032C732.944 704.045 732.142 701.643 733.129 699.667ZM1656.41 704.255C1657.04 706.373 1655.83 708.599 1653.71 709.225C1648.96 710.63 1644.14 712.038 1639.25 713.448C1637.13 714.059 1634.91 712.834 1634.3 710.712C1633.69 708.589 1634.92 706.372 1637.04 705.76C1641.91 704.356 1646.71 702.954 1651.44 701.554C1653.56 700.927 1655.79 702.136 1656.41 704.255ZM1193.43 705.349C1194 707.484 1192.73 709.675 1190.6 710.242C1185.76 711.527 1180.96 712.794 1176.18 714.041C1174.05 714.599 1171.86 713.319 1171.3 711.182C1170.74 709.045 1172.02 706.859 1174.16 706.301C1178.92 705.057 1183.71 703.793 1188.54 702.51C1190.68 701.943 1192.87 703.214 1193.43 705.349ZM1149.95 716.643C1150.49 718.786 1149.18 720.957 1147.04 721.492C1142.12 722.716 1137.24 723.915 1132.39 725.086C1130.25 725.605 1128.08 724.284 1127.57 722.137C1127.05 719.99 1128.37 717.828 1130.52 717.31C1135.35 716.143 1140.21 714.949 1145.1 713.729C1147.25 713.195 1149.42 714.499 1149.95 716.643ZM1613.14 716.653C1613.72 718.784 1612.46 720.983 1610.33 721.566C1605.56 722.872 1600.72 724.177 1595.83 725.479C1593.7 726.047 1591.51 724.777 1590.94 722.642C1590.37 720.508 1591.64 718.316 1593.77 717.748C1598.65 716.451 1603.46 715.15 1608.22 713.849C1610.35 713.267 1612.55 714.522 1613.14 716.653ZM774.02 718.229C774.82 716.17 777.137 715.149 779.197 715.949C783.845 717.755 788.482 719.467 793.109 721.09C795.194 721.821 796.291 724.103 795.56 726.188C794.829 728.273 792.547 729.37 790.462 728.639C785.75 726.987 781.03 725.244 776.3 723.406C774.241 722.606 773.22 720.288 774.02 718.229ZM708.078 720.038C709.085 718.072 711.495 717.294 713.462 718.302C717.93 720.59 722.415 722.836 726.916 725.039C728.9 726.01 729.722 728.406 728.75 730.39C727.779 732.375 725.384 733.196 723.399 732.225C718.854 730 714.326 727.732 709.815 725.422C707.849 724.415 707.071 722.005 708.078 720.038ZM1106.21 727.102C1106.69 729.258 1105.33 731.395 1103.18 731.875C1098.21 732.978 1093.28 734.047 1088.37 735.08C1086.21 735.535 1084.09 734.152 1083.63 731.99C1083.18 729.829 1084.56 727.707 1086.72 727.252C1091.6 726.226 1096.5 725.163 1101.44 724.065C1103.6 723.586 1105.73 724.945 1106.21 727.102ZM1569.58 728.178C1570.12 730.32 1568.83 732.495 1566.68 733.035C1561.88 734.249 1557.02 735.458 1552.12 736.661C1549.97 737.188 1547.81 735.876 1547.28 733.731C1546.75 731.585 1548.07 729.419 1550.21 728.892C1555.09 727.693 1559.93 726.488 1564.73 725.279C1566.87 724.738 1569.04 726.036 1569.58 728.178ZM816.521 732.739C817.106 730.609 819.307 729.356 821.437 729.941C826.255 731.264 831.068 732.494 835.877 733.632C838.026 734.141 839.357 736.296 838.848 738.446C838.339 740.595 836.184 741.926 834.034 741.417C829.133 740.257 824.229 739.004 819.319 737.656C817.189 737.071 815.936 734.87 816.521 732.739ZM1062.07 736.246C1062.47 738.419 1061.03 740.502 1058.85 740.899C1053.9 741.805 1048.97 742.667 1044.06 743.483C1041.88 743.846 1039.82 742.373 1039.46 740.194C1039.1 738.015 1040.57 735.955 1042.75 735.592C1047.61 734.783 1052.5 733.928 1057.42 733.03C1059.59 732.633 1061.67 734.072 1062.07 736.246ZM1525.88 738.842C1526.38 740.994 1525.04 743.144 1522.89 743.643C1518.03 744.771 1513.13 745.892 1508.2 747.005C1506.04 747.491 1503.9 746.138 1503.41 743.983C1502.93 741.828 1504.28 739.687 1506.44 739.201C1511.35 738.092 1516.24 736.974 1521.08 735.85C1523.23 735.351 1525.38 736.69 1525.88 738.842ZM748.88 739.776C749.774 737.756 752.137 736.843 754.157 737.737C758.745 739.769 763.35 741.753 767.971 743.689C770.009 744.542 770.969 746.886 770.116 748.923C769.262 750.961 766.919 751.921 764.881 751.068C760.209 749.111 755.555 747.105 750.918 745.053C748.898 744.158 747.985 741.796 748.88 739.776ZM860.393 742.742C860.748 740.562 862.804 739.082 864.984 739.437C869.871 740.233 874.76 740.94 879.654 741.563C881.846 741.841 883.396 743.844 883.117 746.035C882.839 748.227 880.836 749.777 878.645 749.499C873.66 748.865 868.678 748.144 863.698 747.333C861.518 746.978 860.038 744.923 860.393 742.742ZM1017.68 743.424C1017.96 745.615 1016.41 747.62 1014.22 747.902C1009.22 748.546 1004.24 749.134 999.275 749.666C997.079 749.901 995.107 748.311 994.872 746.115C994.637 743.918 996.227 741.947 998.423 741.711C1003.33 741.186 1008.25 740.604 1013.2 739.967C1015.39 739.685 1017.4 741.233 1017.68 743.424ZM972.972 747.948C973.101 750.154 971.418 752.046 969.213 752.176C964.152 752.473 959.11 752.702 954.082 752.861C951.874 752.931 950.027 751.198 949.957 748.99C949.887 746.782 951.621 744.935 953.829 744.865C958.782 744.708 963.753 744.482 968.744 744.189C970.95 744.06 972.842 745.743 972.972 747.948ZM905.031 748.064C905.161 745.859 907.055 744.177 909.26 744.307C914.193 744.599 919.135 744.811 924.091 744.947C926.299 745.007 928.041 746.846 927.98 749.055C927.92 751.263 926.081 753.004 923.872 752.944C918.834 752.806 913.807 752.59 908.787 752.293C906.582 752.163 904.9 750.269 905.031 748.064ZM1481.95 748.681C1482.41 750.842 1481.03 752.966 1478.87 753.425C1473.99 754.462 1469.08 755.49 1464.13 756.508C1461.96 756.953 1459.85 755.56 1459.4 753.396C1458.96 751.232 1460.35 749.117 1462.52 748.672C1467.45 747.657 1472.34 746.633 1477.21 745.599C1479.37 745.14 1481.5 746.52 1481.95 748.681ZM1437.85 757.692C1438.26 759.861 1436.85 761.958 1434.68 762.376C1429.77 763.321 1424.84 764.256 1419.88 765.179C1417.71 765.583 1415.62 764.15 1415.21 761.978C1414.81 759.806 1416.24 757.718 1418.42 757.314C1423.36 756.394 1428.27 755.463 1433.16 754.521C1435.33 754.103 1437.43 755.522 1437.85 757.692ZM790.78 757.075C791.546 755.003 793.847 753.945 795.919 754.711C800.617 756.449 805.333 758.135 810.066 759.767C812.155 760.487 813.264 762.764 812.544 764.853C811.823 766.941 809.547 768.05 807.458 767.33C802.668 765.678 797.897 763.972 793.144 762.214C791.072 761.448 790.013 759.147 790.78 757.075ZM1393.57 765.863C1393.95 768.04 1392.49 770.11 1390.31 770.486C1385.39 771.338 1380.44 772.178 1375.46 773.005C1373.28 773.367 1371.22 771.894 1370.86 769.715C1370.5 767.536 1371.97 765.475 1374.15 765.113C1379.11 764.289 1384.04 763.452 1388.95 762.603C1391.13 762.227 1393.2 763.686 1393.57 765.863ZM833.703 771.614C834.326 769.494 836.549 768.281 838.669 768.904C843.47 770.315 848.289 771.67 853.125 772.967C855.259 773.539 856.525 775.732 855.953 777.866C855.381 780 853.188 781.266 851.054 780.694C846.155 779.381 841.274 778.009 836.412 776.579C834.293 775.956 833.08 773.733 833.703 771.614ZM1349.15 773.179C1349.48 775.363 1347.98 777.404 1345.8 777.738C1340.86 778.493 1335.89 779.235 1330.91 779.963C1328.73 780.282 1326.69 778.769 1326.38 776.583C1326.06 774.397 1327.57 772.366 1329.76 772.047C1334.72 771.322 1339.67 770.582 1344.59 769.83C1346.77 769.496 1348.82 770.996 1349.15 773.179ZM1304.59 779.616C1304.88 781.806 1303.34 783.816 1301.15 784.106C1296.19 784.762 1291.22 785.402 1286.24 786.027C1284.04 786.302 1282.04 784.748 1281.77 782.556C1281.49 780.364 1283.05 778.364 1285.24 778.089C1290.21 777.467 1295.16 776.828 1300.1 776.175C1302.29 775.886 1304.3 777.426 1304.59 779.616ZM877.537 783.088C878.003 780.928 880.131 779.555 882.291 780.021C887.182 781.075 892.092 782.069 897.019 783C899.19 783.411 900.617 785.503 900.207 787.674C899.797 789.844 897.704 791.271 895.534 790.861C890.538 789.917 885.562 788.91 880.605 787.841C878.445 787.375 877.072 785.247 877.537 783.088ZM1259.9 785.144C1260.14 787.339 1258.56 789.317 1256.36 789.561C1251.4 790.113 1246.42 790.649 1241.43 791.168C1239.24 791.397 1237.27 789.801 1237.04 787.604C1236.81 785.406 1238.41 783.44 1240.61 783.211C1245.58 782.694 1250.54 782.16 1255.48 781.61C1257.68 781.366 1259.65 782.948 1259.9 785.144ZM1215.12 789.724C1215.32 791.925 1213.7 793.868 1211.49 794.065C1206.52 794.51 1201.53 794.937 1196.52 795.347C1194.32 795.528 1192.39 793.889 1192.21 791.687C1192.03 789.486 1193.67 787.554 1195.87 787.374C1200.85 786.966 1205.82 786.54 1210.78 786.096C1212.98 785.9 1214.93 787.524 1215.12 789.724ZM922.114 791.229C922.41 789.039 924.425 787.505 926.614 787.802C931.571 788.473 936.545 789.08 941.538 789.621C943.734 789.859 945.322 791.832 945.083 794.029C944.845 796.225 942.872 797.812 940.676 797.574C935.612 797.025 930.567 796.41 925.541 795.729C923.352 795.433 921.817 793.418 922.114 791.229ZM1170.26 793.32C1170.4 795.524 1168.74 797.43 1166.53 797.577C1161.54 797.91 1156.53 798.225 1151.52 798.52C1149.32 798.65 1147.42 796.968 1147.29 794.763C1147.16 792.557 1148.85 790.664 1151.05 790.534C1156.04 790.24 1161.03 789.927 1166 789.595C1168.2 789.448 1170.11 791.116 1170.26 793.32ZM967.206 795.827C967.326 793.621 969.211 791.93 971.417 792.05C973.925 792.186 976.438 792.305 978.956 792.407C981.45 792.508 983.944 792.603 986.438 792.692C988.646 792.771 990.371 794.625 990.292 796.832C990.213 799.04 988.36 800.766 986.152 800.687C984.818 800.639 983.484 800.59 982.15 800.539C980.977 800.494 979.805 800.448 978.632 800.4C976.078 800.297 973.528 800.176 970.984 800.038C968.778 799.918 967.087 798.033 967.206 795.827ZM1125.31 795.884C1125.41 798.091 1123.7 799.957 1121.49 800.052C1116.48 800.267 1111.47 800.463 1106.45 800.638C1104.24 800.715 1102.39 798.987 1102.31 796.779C1102.24 794.572 1103.96 792.72 1106.17 792.643C1111.17 792.468 1116.16 792.274 1121.14 792.06C1123.35 791.965 1125.22 793.677 1125.31 795.884ZM1080.31 797.364C1080.35 799.573 1078.6 801.396 1076.39 801.436C1071.38 801.526 1066.37 801.596 1061.35 801.644C1059.14 801.665 1057.33 799.892 1057.31 797.683C1057.29 795.474 1059.06 793.666 1061.27 793.645C1066.27 793.597 1071.26 793.527 1076.24 793.437C1078.45 793.397 1080.27 795.155 1080.31 797.364ZM1012.3 797.412C1012.34 795.203 1014.16 793.443 1016.37 793.481C1021.36 793.566 1026.34 793.629 1031.33 793.669C1033.54 793.687 1035.31 795.492 1035.3 797.701C1035.28 799.91 1033.47 801.686 1031.26 801.669C1026.26 801.628 1021.24 801.566 1016.23 801.48C1014.02 801.442 1012.26 799.621 1012.3 797.412Z" fill="#FFED4C" fill-opacity="0.5"/>
<path d="M712.762 266.445C1210.08 136.768 1206.71 305.179 1461.27 594.847L1613 674C1565.8 595.408 1423.85 405.553 1233.69 274.865C995.983 111.507 631.842 266.445 459.886 220.974C322.322 184.597 316.028 -92.8324 330.077 -227C291.865 -19.2928 314.904 370.186 712.762 266.445Z" fill="url(#paint1_linear_1_466)"/>
<path fill-rule="evenodd" clip-rule="evenodd" d="M1535.04 594.28C1534.38 596.389 1532.14 597.564 1530.03 596.905C1527.93 596.248 1525.82 595.377 1523.71 594.28L1514.99 589.73C1513.03 588.709 1512.27 586.293 1513.3 584.334C1514.32 582.375 1516.73 581.616 1518.69 582.638L1527.41 587.187C1529.11 588.071 1530.78 588.758 1532.42 589.269C1534.53 589.928 1535.7 592.171 1535.04 594.28ZM1551.39 592.262C1550.16 590.428 1550.65 587.943 1552.48 586.711C1555.38 584.765 1557.75 582.164 1559.38 579.159C1560.43 577.217 1562.86 576.494 1564.8 577.546C1566.74 578.598 1567.46 581.025 1566.41 582.968C1564.16 587.129 1560.9 590.695 1556.94 593.353C1555.11 594.584 1552.62 594.096 1551.39 592.262ZM1485.51 569.836C1484.48 571.794 1482.07 572.554 1480.11 571.532L1471.39 566.982C1470.76 566.656 1470.15 566.309 1469.54 565.944C1467.96 564.982 1467.28 563.093 1467.78 561.393C1466.24 562.276 1464.25 562.055 1462.94 560.738C1462.45 560.237 1461.97 559.722 1461.51 559.193C1459.82 557.259 1458.14 555.331 1456.47 553.408C1455.03 551.739 1455.21 549.213 1456.87 547.766C1458.54 546.319 1461.07 546.499 1462.52 548.168C1464.18 550.083 1465.85 552.003 1467.53 553.929C1467.88 554.332 1468.25 554.725 1468.63 555.109C1469.69 556.181 1470.02 557.701 1469.62 559.053C1470.85 558.353 1472.4 558.321 1473.69 559.102C1474.15 559.381 1474.62 559.643 1475.09 559.89L1483.81 564.439C1485.77 565.461 1486.53 567.877 1485.51 569.836ZM1564.7 561.09C1562.72 562.078 1560.32 561.278 1559.33 559.302C1558.58 557.788 1557.63 556.257 1556.47 554.726C1555 552.776 1553.5 550.811 1551.99 548.831C1550.64 547.076 1550.98 544.565 1552.73 543.223C1554.49 541.882 1557 542.216 1558.34 543.971C1559.86 545.962 1561.37 547.939 1562.85 549.9C1564.29 551.805 1565.5 553.751 1566.49 555.723C1567.48 557.698 1566.68 560.101 1564.7 561.09ZM1442.56 531.006C1440.87 532.429 1438.35 532.213 1436.92 530.523C1433.63 526.609 1430.38 522.72 1427.17 518.857C1425.76 517.157 1425.99 514.635 1427.69 513.224C1429.39 511.812 1431.91 512.046 1433.32 513.745C1436.52 517.595 1439.76 521.47 1443.04 525.37C1444.46 527.06 1444.25 529.583 1442.56 531.006ZM1539.29 526.003C1537.56 527.38 1535.05 527.095 1533.67 525.367C1530.62 521.542 1527.51 517.676 1524.34 513.773C1522.95 512.059 1523.21 509.539 1524.93 508.147C1526.64 506.754 1529.16 507.014 1530.55 508.729C1533.74 512.652 1536.87 516.537 1539.93 520.382C1541.3 522.11 1541.02 524.627 1539.29 526.003ZM1413.67 496.129C1411.96 497.52 1409.44 497.255 1408.05 495.539C1404.88 491.624 1401.75 487.737 1398.66 483.881C1397.28 482.157 1397.56 479.64 1399.28 478.258C1401 476.877 1403.52 477.155 1404.9 478.879C1407.98 482.725 1411.1 486.6 1414.27 490.503C1415.66 492.22 1415.39 494.739 1413.67 496.129ZM1510.98 491.304C1509.29 492.729 1506.77 492.515 1505.34 490.827C1502.18 487.078 1498.96 483.303 1495.69 479.505C1494.25 477.831 1494.44 475.305 1496.12 473.864C1497.79 472.424 1500.32 472.613 1501.76 474.288C1505.04 478.104 1508.27 481.898 1511.45 485.667C1512.88 487.355 1512.67 489.878 1510.98 491.304ZM1385.53 460.924C1383.79 462.29 1381.28 461.99 1379.91 460.254C1376.76 456.245 1373.64 452.271 1370.56 448.334C1369.2 446.593 1369.51 444.079 1371.25 442.719C1372.99 441.359 1375.51 441.667 1376.87 443.408C1379.94 447.339 1383.05 451.306 1386.2 455.307C1387.56 457.044 1387.26 459.559 1385.53 460.924ZM1481.72 457.448C1480.08 458.92 1477.55 458.778 1476.08 457.13C1472.8 453.459 1469.48 449.774 1466.11 446.077C1464.62 444.443 1464.74 441.913 1466.38 440.426C1468.01 438.939 1470.54 439.058 1472.03 440.691C1475.41 444.408 1478.75 448.112 1482.04 451.801C1483.51 453.448 1483.37 455.977 1481.72 457.448ZM1357.68 425.265C1355.93 426.619 1353.42 426.301 1352.07 424.556C1350.24 422.206 1348.43 419.87 1346.63 417.549C1345.39 415.939 1344.14 414.336 1342.91 412.741C1341.55 410.995 1341.87 408.482 1343.62 407.129C1345.36 405.775 1347.87 406.093 1349.23 407.839C1350.46 409.423 1351.69 411.013 1352.93 412.61C1354.74 414.943 1356.56 417.291 1358.39 419.653C1359.74 421.399 1359.42 423.911 1357.68 425.265ZM1451.52 424.41C1449.91 425.928 1447.38 425.857 1445.86 424.251C1442.48 420.668 1439.05 417.078 1435.58 413.485C1434.05 411.894 1434.1 409.362 1435.69 407.829C1437.28 406.296 1439.81 406.342 1441.34 407.933C1444.83 411.545 1448.27 415.153 1451.68 418.755C1453.19 420.36 1453.12 422.892 1451.52 424.41ZM1420.38 392.248C1418.81 393.812 1416.28 393.815 1414.72 392.254C1411.22 388.767 1407.69 385.281 1404.13 381.796C1402.55 380.252 1402.52 377.719 1404.07 376.14C1405.61 374.56 1408.14 374.532 1409.72 376.076C1413.31 379.579 1416.85 383.085 1420.37 386.591C1421.93 388.151 1421.94 390.684 1420.38 392.248ZM1330.05 389.679C1328.31 391.039 1325.79 390.731 1324.43 388.991C1321.29 384.97 1318.17 381 1315.08 377.083C1313.71 375.349 1314.01 372.834 1315.74 371.465C1317.48 370.096 1319.99 370.393 1321.36 372.127C1324.46 376.055 1327.59 380.035 1330.74 384.064C1332.1 385.804 1331.79 388.318 1330.05 389.679ZM1388.29 361.028C1386.78 362.639 1384.25 362.72 1382.64 361.208C1379.03 357.826 1375.4 354.451 1371.73 351.084C1370.11 349.589 1370 347.059 1371.5 345.432C1372.99 343.805 1375.52 343.698 1377.15 345.192C1380.83 348.579 1384.49 351.973 1388.11 355.374C1389.72 356.886 1389.8 359.417 1388.29 361.028ZM1301.96 354.227C1300.24 355.622 1297.72 355.363 1296.33 353.65C1293.13 349.717 1289.94 345.846 1286.77 342.039C1285.36 340.341 1285.59 337.819 1287.29 336.405C1288.98 334.991 1291.51 335.221 1292.92 336.919C1296.11 340.752 1299.31 344.646 1302.53 348.6C1303.93 350.313 1303.67 352.832 1301.96 354.227ZM1355.25 330.829C1353.79 332.488 1351.27 332.65 1349.61 331.192C1345.89 327.926 1342.15 324.672 1338.38 321.431C1336.7 319.991 1336.51 317.466 1337.95 315.791C1339.39 314.115 1341.92 313.924 1343.59 315.364C1347.39 318.625 1351.15 321.898 1354.89 325.184C1356.55 326.643 1356.71 329.17 1355.25 330.829ZM1272.91 319.623C1271.25 321.089 1268.72 320.937 1267.26 319.284C1263.91 315.51 1260.57 311.812 1257.22 308.189C1255.72 306.566 1255.83 304.036 1257.45 302.537C1259.07 301.038 1261.6 301.138 1263.1 302.761C1266.49 306.426 1269.87 310.165 1273.24 313.976C1274.71 315.629 1274.56 318.157 1272.91 319.623ZM1321.23 301.745C1319.83 303.453 1317.31 303.703 1315.6 302.302C1311.77 299.165 1307.92 296.044 1304.04 292.943C1302.31 291.563 1302.03 289.046 1303.41 287.32C1304.79 285.595 1307.31 285.315 1309.04 286.695C1312.94 289.817 1316.82 292.958 1320.67 296.116C1322.38 297.516 1322.63 300.036 1321.23 301.745ZM1242.06 286.663C1240.51 288.244 1237.98 288.276 1236.4 286.734C1232.81 283.23 1229.2 279.815 1225.56 276.49C1223.93 274.999 1223.82 272.469 1225.31 270.839C1226.8 269.208 1229.33 269.095 1230.96 270.586C1234.66 273.972 1238.33 277.446 1241.98 281.007C1243.57 282.549 1243.6 285.082 1242.06 286.663ZM1286.19 273.89C1284.85 275.65 1282.34 275.993 1280.58 274.657C1276.64 271.663 1272.67 268.69 1268.68 265.741C1266.91 264.429 1266.53 261.924 1267.84 260.147C1269.16 258.371 1271.66 257.995 1273.44 259.308C1277.46 262.277 1281.45 265.271 1285.42 268.286C1287.18 269.622 1287.52 272.131 1286.19 273.89ZM1208.47 256.533C1207.11 258.273 1204.59 258.58 1202.85 257.218C1198.93 254.149 1194.96 251.181 1190.95 248.315C1189.15 247.032 1188.73 244.534 1190.01 242.736C1191.29 240.937 1193.79 240.518 1195.59 241.801C1199.71 244.738 1203.77 247.778 1207.78 250.918C1209.52 252.279 1209.83 254.793 1208.47 256.533ZM594.156 249.699C594.109 251.908 592.28 253.66 590.071 253.612C584.733 253.497 579.491 253.263 574.343 252.911C572.139 252.761 570.475 250.853 570.625 248.648C570.775 246.444 572.684 244.78 574.888 244.93C579.909 245.273 585.027 245.502 590.243 245.614C592.452 245.662 594.204 247.491 594.156 249.699ZM616.962 249.22C616.828 247.015 618.507 245.119 620.712 244.985C625.654 244.685 630.674 244.289 635.775 243.794C637.974 243.58 639.929 245.19 640.143 247.389C640.356 249.587 638.747 251.543 636.548 251.756C631.353 252.261 626.237 252.665 621.197 252.971C618.992 253.104 617.096 251.425 616.962 249.22ZM547.981 245.963C547.604 248.14 545.534 249.599 543.358 249.222C538.166 248.324 533.083 247.295 528.108 246.139C525.956 245.639 524.617 243.49 525.116 241.338C525.616 239.186 527.766 237.847 529.918 238.347C534.743 239.468 539.677 240.467 544.721 241.339C546.898 241.716 548.358 243.786 547.981 245.963ZM1250.1 247.403C1248.84 249.215 1246.35 249.659 1244.53 248.395C1242.5 246.977 1240.46 245.566 1238.42 244.162C1236.42 242.784 1234.4 241.43 1232.38 240.097C1230.53 238.882 1230.02 236.401 1231.24 234.557C1232.45 232.712 1234.94 232.201 1236.78 233.416C1238.85 234.777 1240.9 236.161 1242.95 237.569C1245.01 238.984 1247.06 240.405 1249.11 241.834C1250.92 243.098 1251.37 245.591 1250.1 247.403ZM662.749 244.424C662.393 242.243 663.872 240.187 666.053 239.832C671.089 239.009 676.197 238.098 681.376 237.095C683.545 236.675 685.644 238.093 686.064 240.262C686.484 242.43 685.066 244.529 682.897 244.949C677.642 245.967 672.457 246.892 667.341 247.727C665.161 248.083 663.105 246.604 662.749 244.424ZM708.187 235.363C707.656 233.219 708.964 231.049 711.108 230.518C713.64 229.891 716.189 229.243 718.753 228.574C721.269 227.918 723.773 227.27 726.263 226.629C728.403 226.078 730.583 227.366 731.134 229.506C731.685 231.645 730.396 233.826 728.257 234.376C725.775 235.015 723.279 235.661 720.771 236.315C718.176 236.992 715.596 237.648 713.032 238.283C710.887 238.815 708.719 237.507 708.187 235.363ZM503.198 234.815C502.434 236.887 500.134 237.948 498.061 237.184C493.125 235.363 488.311 233.403 483.618 231.309C481.601 230.408 480.695 228.043 481.595 226.026C482.496 224.008 484.861 223.103 486.878 224.003C491.408 226.025 496.058 227.918 500.829 229.678C502.902 230.442 503.963 232.742 503.198 234.815ZM1171.43 230.786C1170.33 232.702 1167.88 233.363 1165.97 232.264C1161.69 229.81 1157.35 227.463 1152.92 225.223C1150.95 224.225 1150.16 221.818 1151.16 219.847C1152.16 217.877 1154.57 217.088 1156.54 218.086C1161.09 220.389 1165.55 222.803 1169.95 225.325C1171.86 226.425 1172.53 228.87 1171.43 230.786ZM752.61 224.131C752.089 221.984 753.407 219.821 755.554 219.3C760.48 218.104 765.355 216.939 770.179 215.806C772.33 215.301 774.483 216.635 774.988 218.786C775.493 220.936 774.159 223.089 772.008 223.594C767.204 224.723 762.349 225.882 757.441 227.074C755.295 227.595 753.132 226.278 752.61 224.131ZM1213.03 223.553C1211.96 225.486 1209.53 226.187 1207.59 225.118C1203.36 222.778 1199.1 220.525 1194.8 218.357C1192.83 217.362 1192.04 214.956 1193.03 212.984C1194.03 211.011 1196.43 210.219 1198.4 211.215C1202.79 213.428 1207.14 215.728 1211.46 218.117C1213.4 219.186 1214.1 221.62 1213.03 223.553ZM461.401 215.282C460.228 217.155 457.76 217.723 455.888 216.551C451.433 213.763 447.111 210.838 442.917 207.782C441.131 206.481 440.738 203.979 442.039 202.194C443.34 200.408 445.842 200.015 447.627 201.316C451.671 204.262 455.838 207.082 460.132 209.769C462.005 210.941 462.573 213.409 461.401 215.282ZM796.566 213.903C796.097 211.744 797.467 209.614 799.626 209.145C804.616 208.061 809.549 207.013 814.426 206.002C816.589 205.554 818.706 206.944 819.155 209.107C819.603 211.27 818.213 213.387 816.05 213.836C811.199 214.842 806.29 215.884 801.324 216.963C799.165 217.431 797.035 216.061 796.566 213.903ZM1130.9 210.911C1130.12 212.977 1127.81 214.016 1125.74 213.233C1121.18 211.504 1116.53 209.876 1111.79 208.352C1109.69 207.676 1108.53 205.423 1109.2 203.32C1109.88 201.216 1112.13 200.059 1114.24 200.735C1119.11 202.301 1123.89 203.975 1128.58 205.753C1130.65 206.536 1131.68 208.846 1130.9 210.911ZM840.69 204.867C840.286 202.695 841.72 200.607 843.892 200.204C848.991 199.258 854.025 198.354 858.995 197.493C861.172 197.116 863.242 198.575 863.619 200.751C863.996 202.928 862.537 204.998 860.36 205.375C855.423 206.231 850.421 207.129 845.352 208.07C843.18 208.473 841.093 207.039 840.69 204.867ZM1173.69 204.106C1172.85 206.145 1170.5 207.111 1168.46 206.262C1164 204.403 1159.5 202.624 1154.98 200.924C1152.91 200.146 1151.86 197.84 1152.64 195.772C1153.42 193.704 1155.72 192.658 1157.79 193.435C1162.4 195.168 1166.98 196.98 1171.54 198.876C1173.58 199.725 1174.54 202.066 1173.69 204.106ZM1087.78 197.594C1087.31 199.753 1085.18 201.123 1083.02 200.654C1078.29 199.625 1073.46 198.687 1068.52 197.84C1066.35 197.466 1064.88 195.398 1065.26 193.221C1065.63 191.043 1067.7 189.581 1069.88 189.955C1074.92 190.821 1079.87 191.782 1084.72 192.836C1086.88 193.305 1088.25 195.435 1087.78 197.594ZM885.324 197.277C885.005 195.091 886.519 193.061 888.705 192.742C893.811 191.997 898.846 191.301 903.811 190.654C906.002 190.369 908.009 191.913 908.294 194.104C908.58 196.295 907.035 198.302 904.845 198.587C899.921 199.229 894.926 199.919 889.859 200.658C887.674 200.977 885.643 199.463 885.324 197.277ZM546.643 191.71C551.442 191.724 556.317 191.675 561.263 191.569C563.472 191.521 565.301 193.273 565.349 195.482C565.396 197.69 563.644 199.519 561.436 199.567C556.429 199.675 551.489 199.724 546.619 199.71C544.41 199.703 542.625 197.907 542.631 195.697C542.638 193.488 544.434 191.703 546.643 191.71ZM521.405 195.006C521.256 197.21 519.348 198.876 517.144 198.727C512.139 198.389 507.225 197.959 502.41 197.428C500.214 197.186 498.63 195.21 498.872 193.014C499.114 190.818 501.09 189.234 503.286 189.476C507.981 189.993 512.782 190.414 517.683 190.746C519.887 190.894 521.553 192.802 521.405 195.006ZM586.537 194.595C586.406 192.39 588.089 190.497 590.294 190.366C595.115 190.082 599.991 189.757 604.92 189.395C607.123 189.234 609.04 190.889 609.202 193.092C609.363 195.296 607.708 197.213 605.505 197.374C600.541 197.738 595.627 198.066 590.765 198.353C588.56 198.483 586.667 196.8 586.537 194.595ZM930.257 191.614C930.048 189.415 931.661 187.462 933.86 187.253C938.887 186.775 943.838 186.352 948.716 185.984C950.918 185.818 952.839 187.469 953.005 189.671C953.171 191.874 951.52 193.795 949.318 193.961C944.493 194.325 939.594 194.744 934.618 195.217C932.418 195.426 930.466 193.813 930.257 191.614ZM630.353 191.296C630.145 189.097 631.76 187.145 633.959 186.938C638.782 186.482 643.646 186.001 648.551 185.5C650.748 185.275 652.712 186.875 652.937 189.072C653.161 191.27 651.562 193.234 649.364 193.458C644.442 193.961 639.557 194.444 634.712 194.902C632.513 195.11 630.561 193.496 630.353 191.296ZM1043.27 190.363C1043.07 192.563 1041.12 194.183 1038.92 193.982C1034.09 193.54 1029.18 193.176 1024.17 192.89C1021.96 192.764 1020.28 190.874 1020.4 188.668C1020.53 186.463 1022.42 184.777 1024.62 184.903C1029.72 185.194 1034.73 185.565 1039.65 186.015C1041.85 186.217 1043.47 188.163 1043.27 190.363ZM477.8 189.58C477.311 191.734 475.168 193.084 473.013 192.595C470.598 192.047 468.214 191.462 465.864 190.841C463.32 190.168 460.819 189.416 458.36 188.586C456.266 187.879 455.142 185.609 455.849 183.516C456.556 181.423 458.825 180.299 460.918 181.006C463.208 181.779 465.538 182.48 467.909 183.107C470.165 183.703 472.457 184.265 474.785 184.794C476.939 185.283 478.289 187.426 477.8 189.58ZM975.099 188.488C975.033 186.28 976.77 184.437 978.978 184.371C984.175 184.217 989.283 184.132 994.306 184.115C996.515 184.108 998.312 185.893 998.319 188.102C998.327 190.311 996.542 192.108 994.332 192.115C989.382 192.131 984.344 192.215 979.216 192.368C977.008 192.433 975.164 190.697 975.099 188.488ZM1132.48 188.961C1131.84 191.076 1129.61 192.272 1127.5 191.633C1122.87 190.235 1118.22 188.909 1113.54 187.653C1111.41 187.08 1110.14 184.886 1110.71 182.752C1111.29 180.619 1113.48 179.354 1115.61 179.927C1120.37 181.204 1125.1 182.552 1129.81 183.975C1131.92 184.614 1133.12 186.846 1132.48 188.961ZM674.082 186.787C673.835 184.592 675.414 182.612 677.61 182.365C682.417 181.824 687.255 181.271 692.124 180.709C694.318 180.455 696.303 182.029 696.556 184.223C696.81 186.418 695.236 188.402 693.042 188.656C688.167 189.219 683.32 189.773 678.504 190.315C676.309 190.562 674.329 188.982 674.082 186.787ZM424.564 187.489C423.03 189.078 420.497 189.122 418.908 187.587C415.147 183.954 411.514 180.199 408.006 176.332C406.522 174.695 406.645 172.166 408.282 170.682C409.918 169.197 412.448 169.321 413.932 170.957C417.323 174.697 420.834 178.324 424.466 181.833C426.055 183.368 426.099 185.9 424.564 187.489ZM717.721 181.745C717.463 179.551 719.033 177.563 721.227 177.305C726.042 176.739 730.882 176.17 735.744 175.601C737.938 175.345 739.925 176.916 740.182 179.11C740.438 181.304 738.868 183.291 736.673 183.547C731.814 184.115 726.977 184.684 722.161 185.25C719.967 185.508 717.979 183.939 717.721 181.745ZM1090.01 177.843C1089.56 180.007 1087.44 181.396 1085.28 180.948C1080.54 179.965 1075.78 179.045 1071 178.187C1068.83 177.797 1067.38 175.718 1067.77 173.543C1068.16 171.369 1070.24 169.923 1072.42 170.313C1077.26 171.184 1082.09 172.116 1086.91 173.114C1089.07 173.563 1090.46 175.68 1090.01 177.843ZM761.332 176.675C761.086 174.479 762.665 172.5 764.86 172.253C769.706 171.708 774.57 171.17 779.45 170.64C781.646 170.401 783.62 171.988 783.859 174.184C784.097 176.381 782.51 178.354 780.314 178.593C775.445 179.122 770.591 179.659 765.754 180.203C763.559 180.45 761.579 178.87 761.332 176.675ZM805.023 171.987C804.807 169.788 806.415 167.831 808.613 167.615C813.469 167.139 818.338 166.676 823.217 166.229C825.417 166.027 827.364 167.647 827.565 169.847C827.766 172.047 826.146 173.994 823.946 174.195C819.086 174.64 814.235 175.102 809.395 175.577C807.196 175.793 805.239 174.186 805.023 171.987ZM436.062 173.722C434.833 175.558 432.349 176.05 430.513 174.822C426.225 171.952 422.107 168.808 418.154 165.411C416.478 163.971 416.287 161.445 417.727 159.77C419.167 158.095 421.693 157.904 423.368 159.343C427.089 162.541 430.952 165.49 434.962 168.173C436.798 169.402 437.29 171.886 436.062 173.722ZM1046.74 170.315C1046.45 172.506 1044.45 174.053 1042.26 173.771C1037.46 173.153 1032.64 172.589 1027.82 172.079C1025.62 171.846 1024.03 169.877 1024.26 167.68C1024.49 165.483 1026.46 163.891 1028.66 164.123C1033.55 164.64 1038.42 165.21 1043.28 165.837C1045.47 166.119 1047.02 168.124 1046.74 170.315ZM848.78 168.066C848.614 165.863 850.265 163.942 852.467 163.776C857.34 163.408 862.22 163.061 867.106 162.738C869.31 162.592 871.215 164.261 871.361 166.465C871.507 168.669 869.838 170.574 867.634 170.72C862.774 171.042 857.919 171.387 853.07 171.753C850.867 171.92 848.947 170.269 848.78 168.066ZM1003.05 165.892C1002.91 168.096 1001.01 169.769 998.805 169.628C993.965 169.318 989.115 169.055 984.257 168.836C982.05 168.737 980.342 166.867 980.442 164.66C980.541 162.453 982.411 160.745 984.618 160.844C989.524 161.065 994.424 161.331 999.316 161.644C1001.52 161.786 1003.19 163.687 1003.05 165.892ZM892.615 165.28C892.517 163.073 894.227 161.204 896.434 161.106C901.325 160.888 906.22 160.699 911.115 160.541C913.323 160.47 915.171 162.202 915.242 164.41C915.313 166.618 913.581 168.466 911.373 168.537C906.511 168.694 901.65 168.881 896.789 169.098C894.582 169.196 892.714 167.487 892.615 165.28ZM959.167 164.077C959.143 166.286 957.333 168.058 955.124 168.034C950.267 167.981 945.406 167.967 940.541 167.99C938.332 168 936.533 166.217 936.523 164.008C936.513 161.799 938.295 160 940.504 159.99C945.408 159.967 950.311 159.981 955.21 160.034C957.419 160.058 959.191 161.868 959.167 164.077ZM394.045 152.844C392.239 154.116 389.744 153.683 388.472 151.877C385.477 147.624 382.599 143.275 379.834 138.837C378.666 136.961 379.24 134.494 381.115 133.326C382.99 132.158 385.457 132.732 386.625 134.607C389.312 138.921 392.107 143.145 395.013 147.271C396.285 149.077 395.852 151.573 394.045 152.844ZM402.604 143.676C400.859 145.031 398.346 144.714 396.991 142.969C393.89 138.973 390.92 134.793 388.076 130.444C386.867 128.595 387.386 126.116 389.235 124.907C391.084 123.698 393.563 124.217 394.772 126.066C397.505 130.245 400.35 134.249 403.311 138.063C404.666 139.809 404.349 142.321 402.604 143.676ZM370.081 113.342C368.097 114.312 365.701 113.491 364.73 111.506C362.453 106.853 360.278 102.127 358.201 97.3366C357.322 95.3098 358.253 92.9543 360.28 92.0756C362.307 91.1969 364.662 92.1276 365.541 94.1545C367.571 98.8365 369.695 103.451 371.916 107.991C372.887 109.975 372.065 112.371 370.081 113.342ZM378.441 105.605C376.452 106.564 374.061 105.729 373.101 103.739C370.918 99.2113 368.832 94.5649 366.839 89.8116C365.985 87.7743 366.944 85.4303 368.982 84.5761C371.019 83.722 373.363 84.6811 374.217 86.7184C376.159 91.3505 378.188 95.8694 380.307 100.265C381.267 102.255 380.431 104.646 378.441 105.605ZM352.096 70.7559C350.004 71.4647 347.733 70.3431 347.024 68.2508C345.365 63.3533 343.794 58.4055 342.306 53.4136C341.675 51.2964 342.88 49.0688 344.997 48.4379C347.115 47.8071 349.342 49.012 349.973 51.1292C351.433 56.0294 352.975 60.8829 354.601 65.684C355.31 67.7764 354.189 70.0472 352.096 70.7559ZM361.36 63.7991C359.257 64.4755 357.004 63.3188 356.328 61.2158C354.79 56.4331 353.326 51.5753 351.935 46.6517C351.334 44.5259 352.57 42.3155 354.696 41.7147C356.822 41.1138 359.032 42.3501 359.633 44.476C361 49.3124 362.436 54.0789 363.943 58.7667C364.62 60.8697 363.463 63.1229 361.36 63.7991ZM339.233 26.3386C337.078 26.8266 334.936 25.4756 334.448 23.3211C333.306 18.2792 332.239 13.206 331.245 8.10706C330.823 5.93872 332.238 3.83832 334.406 3.41571C336.575 2.9931 338.675 4.40833 339.098 6.57666C340.077 11.5987 341.126 16.5929 342.25 21.5537C342.738 23.7083 341.387 25.8505 339.233 26.3386ZM349.353 20.2239C347.195 20.6946 345.063 19.3265 344.593 17.1682C343.522 12.2607 342.512 7.3089 341.56 2.3208C341.145 0.150879 342.568 -1.94409 344.738 -2.3584C346.908 -2.77271 349.003 -1.34955 349.418 0.820374C350.358 5.74298 351.354 10.6265 352.409 15.4633C352.88 17.6217 351.512 19.7531 349.353 20.2239ZM330.675 -19.1173C328.486 -18.8151 326.467 -20.3442 326.165 -22.5325C325.458 -27.6559 324.816 -32.7938 324.238 -37.9409C323.991 -40.1362 325.571 -42.1158 327.766 -42.3624C329.962 -42.6089 331.941 -41.0291 332.188 -38.8338C332.759 -33.7523 333.392 -28.6815 334.09 -23.6269C334.392 -21.4385 332.863 -19.4196 330.675 -19.1173ZM341.108 -24.1741C338.921 -23.8596 336.894 -25.3772 336.579 -27.5638C335.862 -32.5507 335.195 -37.5577 334.577 -42.5776C334.307 -44.7702 335.866 -46.7665 338.059 -47.0364C340.251 -47.3064 342.247 -45.7478 342.517 -43.5552C343.129 -38.5873 343.789 -33.6341 344.498 -28.7028C344.812 -26.5162 343.295 -24.4886 341.108 -24.1741ZM325.763 -65.1193C323.558 -64.9762 321.655 -66.6473 321.512 -68.8518C321.177 -74.0156 320.9 -79.178 320.679 -84.3336C320.584 -86.5406 322.297 -88.4066 324.504 -88.5013C326.711 -88.5959 328.577 -86.8834 328.672 -84.6763C328.89 -79.5779 329.164 -74.474 329.495 -69.3699C329.638 -67.1654 327.967 -65.2623 325.763 -65.1193ZM335.77 -69.0479C333.569 -68.8587 331.632 -70.4897 331.443 -72.6907C331.01 -77.7211 330.622 -82.75 330.275 -87.77C330.123 -89.9739 331.787 -91.8839 333.99 -92.0359C336.194 -92.1881 338.104 -90.5248 338.256 -88.3209C338.6 -83.3444 338.985 -78.3602 339.413 -73.3757C339.602 -71.1746 337.971 -69.237 335.77 -69.0479ZM324.006 -111.353C321.797 -111.35 320.004 -113.139 320.001 -115.348C319.994 -120.526 320.039 -125.685 320.133 -130.821C320.174 -133.03 321.997 -134.788 324.206 -134.747C326.415 -134.706 328.172 -132.883 328.132 -130.674C328.038 -125.59 327.994 -120.483 328.001 -115.359C328.004 -113.15 326.215 -111.356 324.006 -111.353ZM332.819 -114.139C330.611 -114.056 328.754 -115.778 328.671 -117.986C328.48 -123.054 328.329 -128.098 328.214 -133.109C328.164 -135.317 329.913 -137.149 332.122 -137.199C334.33 -137.25 336.161 -135.5 336.212 -133.292C336.326 -128.319 336.476 -123.315 336.665 -118.287C336.749 -116.079 335.026 -114.222 332.819 -114.139ZM325.068 -157.61C322.862 -157.735 321.176 -159.625 321.301 -161.83C321.595 -167.008 321.935 -172.149 322.32 -177.246C322.486 -179.449 324.407 -181.1 326.609 -180.934C327.347 -180.878 328.023 -180.625 328.589 -180.232C329.267 -181.542 330.647 -182.425 332.221 -182.394C334.43 -182.351 336.186 -180.526 336.143 -178.317C336.046 -173.374 335.983 -168.369 335.955 -163.311C335.943 -161.102 334.142 -159.321 331.933 -159.333C330.842 -159.34 329.856 -159.782 329.138 -160.493C328.633 -158.739 326.968 -157.503 325.068 -157.61ZM328.759 -203.738C326.564 -203.987 324.986 -205.968 325.235 -208.163C325.821 -213.341 326.45 -218.457 327.118 -223.503C327.408 -225.693 329.419 -227.233 331.609 -226.943C331.679 -226.933 331.749 -226.922 331.818 -226.909C332.51 -227.355 333.345 -227.591 334.229 -227.536C336.434 -227.398 338.11 -225.499 337.972 -223.294C337.667 -218.405 337.391 -213.406 337.148 -208.309C337.042 -206.102 335.168 -204.399 332.962 -204.504C332.575 -204.523 332.205 -204.595 331.856 -204.714C331.038 -203.992 329.929 -203.606 328.759 -203.738ZM335.058 -249.578C332.882 -249.955 331.423 -252.025 331.8 -254.202C332.238 -256.734 332.686 -259.242 333.143 -261.724L341.055 -260.583C340.803 -258.176 340.557 -255.722 340.319 -253.224C340.13 -251.241 338.524 -249.735 336.599 -249.611C336.106 -249.503 335.585 -249.487 335.058 -249.578Z" fill="#FFED4C" fill-opacity="0.5"/>
</g>
<defs>
<linearGradient id="paint0_linear_1_466" x1="997.144" y1="345.232" x2="285.322" y2="752.996" gradientUnits="userSpaceOnUse">
<stop stop-color="white"/>
<stop offset="1" stop-color="#FFED4C"/>
</linearGradient>
<linearGradient id="paint1_linear_1_466" x1="1041.61" y1="515.501" x2="824.113" y2="10.7067" gradientUnits="userSpaceOnUse">
<stop stop-color="white"/>
<stop offset="1" stop-color="#FFED4C"/>
</linearGradient>
</defs>
</svg>
