<svg width="177" height="66" viewBox="0 0 177 66" fill="none" xmlns="http://www.w3.org/2000/svg">
<path d="M31.123 13.4682C31.123 15.6868 30.5488 17.7227 29.4003 19.5759C28.2519 21.4291 26.5814 22.943 24.3889 24.1175C22.1964 25.2921 19.5863 25.9838 16.5585 26.1926L14.875 35.6282C14.2225 39.2562 12.4476 41.0703 9.55034 41.0703C7.95816 41.0703 6.48344 40.6004 5.12618 39.6608C3.79502 38.7212 2.72487 37.2856 1.91573 35.3541C1.1066 33.4226 0.702026 31.0474 0.702026 28.2285C0.702026 22.9299 1.55032 18.4405 3.24689 14.7602C4.96957 11.0539 7.26648 8.28714 10.1376 6.46005C13.0348 4.60687 16.2192 3.68027 19.6907 3.68027C22.1442 3.68027 24.2192 4.11094 25.9158 4.97228C27.6385 5.83362 28.9305 7.00818 29.7918 8.49595C30.6793 9.95761 31.123 11.615 31.123 13.4682ZM17.2632 22.1599C22.614 21.4813 25.2894 18.7015 25.2894 13.8206C25.2894 12.0979 24.7151 10.7015 23.5667 9.63135C22.4443 8.5351 20.6956 7.98697 18.3203 7.98697C15.6319 7.98697 13.2828 8.83526 11.273 10.5318C9.28933 12.2284 7.74935 14.5906 6.6531 17.6183C5.58295 20.62 5.04788 24.0523 5.04788 27.9153C5.04788 29.5335 5.20449 30.9691 5.5177 32.222C5.85702 33.4748 6.27464 34.4536 6.77056 35.1583C7.29258 35.837 7.78851 36.1763 8.25833 36.1763C8.91086 36.1763 9.40678 35.2758 9.7461 33.4748L11.0381 26.0751C10.0202 25.9185 9.57644 25.8533 9.70694 25.8794C8.92391 25.7488 8.41493 25.5139 8.18002 25.1746C7.94511 24.8092 7.82766 24.3524 7.82766 23.8043C7.82766 23.2301 7.98426 22.7733 8.29748 22.434C8.6368 22.0947 9.09357 21.925 9.66779 21.925C9.92881 21.925 10.1246 21.9381 10.2551 21.9642C10.8815 22.0686 11.3644 22.1338 11.7037 22.1599C12.043 20.124 12.5259 17.3965 13.1523 13.9772C13.3089 13.0898 13.6613 12.4633 14.2094 12.0979C14.7836 11.7064 15.4492 11.5106 16.2061 11.5106C17.0675 11.5106 17.6809 11.6803 18.0463 12.0196C18.4378 12.3328 18.6336 12.8418 18.6336 13.5465C18.6336 13.9642 18.6075 14.3035 18.5553 14.5645L17.2632 22.1599Z" fill="#FFEC42"/>
<path d="M33.9465 36.9985C32.772 36.9985 31.8062 36.4634 31.0493 35.3932C30.3184 34.297 29.953 32.9397 29.953 31.3215C29.953 29.3639 30.0835 27.5759 30.3445 25.9577C30.6056 24.3133 31.0362 22.5776 31.6366 20.7505C31.8976 19.9674 32.263 19.4063 32.7328 19.0669C33.2026 18.7276 33.9465 18.558 34.9645 18.558C35.5387 18.558 35.9302 18.6493 36.139 18.832C36.3739 19.0147 36.4914 19.2888 36.4914 19.6542C36.4914 19.863 36.3478 20.5678 36.0607 21.7684C35.7997 22.7342 35.5909 23.6086 35.4343 24.3916C34.9123 27.1322 34.6512 28.9593 34.6512 29.8728C34.6512 30.421 34.7165 30.8125 34.847 31.0474C34.9775 31.2562 35.1863 31.3606 35.4734 31.3606C35.8649 31.3606 36.3478 30.9691 36.922 30.1861C37.5224 29.403 38.1488 28.2154 38.8013 26.6232C39.48 25.0311 40.1325 23.0735 40.7589 20.7505C40.9677 19.9674 41.2809 19.4063 41.6986 19.0669C42.1423 18.7276 42.7948 18.558 43.6562 18.558C44.2565 18.558 44.6741 18.6363 44.909 18.7929C45.1439 18.9234 45.2614 19.1844 45.2614 19.5759C45.2614 20.2284 44.9351 22.0164 44.2826 24.9397C43.5518 28.2807 43.1863 30.3427 43.1863 31.1257C43.1863 31.6216 43.2907 32.0131 43.4995 32.3003C43.7084 32.5613 43.9824 32.6918 44.3217 32.6918C44.8438 32.6918 45.4571 32.3786 46.1619 31.7521C46.8927 31.0996 47.8585 30.0556 49.0591 28.62C49.3723 28.2546 49.7247 28.0719 50.1162 28.0719C50.4555 28.0719 50.7165 28.2285 50.8992 28.5417C51.1081 28.8549 51.2125 29.2856 51.2125 29.8337C51.2125 30.8777 50.9645 31.6869 50.4686 32.2611C49.3462 33.6445 48.1325 34.7799 46.8275 35.6673C45.5485 36.5548 44.0868 36.9985 42.4424 36.9985C41.1896 36.9985 40.263 36.5156 39.6627 35.5499C39.0884 34.5841 38.8013 33.2268 38.8013 31.4781C38.3576 33.2529 37.692 34.6233 36.8046 35.589C35.9171 36.5287 34.9645 36.9985 33.9465 36.9985Z" fill="#FFEC42"/>
<path d="M50.8176 36.9985C49.8257 36.9985 49.121 36.4764 48.7034 35.4324C48.3119 34.3884 48.1161 32.7179 48.1161 30.421C48.1161 27.0278 48.599 23.8043 49.5647 20.7505C49.7996 19.9935 50.1781 19.4454 50.7001 19.1061C51.2482 18.7407 52.0052 18.558 52.9709 18.558C53.4929 18.558 53.8584 18.6232 54.0672 18.7537C54.276 18.8842 54.3804 19.1322 54.3804 19.4976C54.3804 19.9152 54.1846 20.8549 53.7931 22.3165C53.5321 23.3606 53.3233 24.2741 53.1667 25.0572C53.0101 25.8402 52.8796 26.8059 52.7752 27.9544C53.6365 25.7097 54.6023 23.8826 55.6724 22.4731C56.7426 21.0637 57.7866 20.0588 58.8045 19.4585C59.8486 18.8581 60.8013 18.558 61.6626 18.558C63.3592 18.558 64.2075 19.4063 64.2075 21.1028C64.2075 21.4421 64.09 22.2643 63.8551 23.5694C63.6463 24.6134 63.5419 25.266 63.5419 25.527C63.5419 26.4405 63.8682 26.8973 64.5207 26.8973C65.2515 26.8973 66.1912 26.3231 67.3396 25.1746C67.679 24.8353 68.0313 24.6656 68.3967 24.6656C68.7361 24.6656 68.9971 24.8223 69.1798 25.1355C69.3886 25.4226 69.493 25.8141 69.493 26.31C69.493 27.2758 69.232 28.0327 68.71 28.5808C67.9791 29.3378 67.1178 29.9903 66.1259 30.5384C65.1602 31.0604 64.1292 31.3215 63.0329 31.3215C61.6496 31.3215 60.5925 30.9691 59.8616 30.2644C59.1569 29.5596 58.8045 28.6069 58.8045 27.4063C58.8045 27.0148 58.8437 26.6232 58.922 26.2317C58.9742 25.7097 59.0003 25.3573 59.0003 25.1746C59.0003 24.757 58.8567 24.5482 58.5696 24.5482C58.1781 24.5482 57.6561 24.9919 57.0036 25.8794C56.3771 26.7407 55.7507 27.8891 55.1243 29.3247C54.4978 30.7603 53.9889 32.2742 53.5974 33.8663C53.3102 35.0931 52.9709 35.9283 52.5794 36.372C52.214 36.7897 51.6267 36.9985 50.8176 36.9985Z" fill="#FFEC42"/>
<path d="M68.6347 36.9985C67.6429 36.9985 66.9381 36.4764 66.5205 35.4324C66.129 34.3884 65.9332 32.7179 65.9332 30.421C65.9332 27.0278 66.4161 23.8043 67.3819 20.7505C67.6168 19.9935 67.9952 19.4454 68.5173 19.1061C69.0654 18.7407 69.8223 18.558 70.7881 18.558C71.3101 18.558 71.6755 18.6232 71.8843 18.7537C72.0931 18.8842 72.1975 19.1322 72.1975 19.4976C72.1975 19.9152 72.0018 20.8549 71.6102 22.3165C71.3492 23.3606 71.1404 24.2741 70.9838 25.0572C70.8272 25.8402 70.6967 26.8059 70.5923 27.9544C71.4536 25.7097 72.4194 23.8826 73.4895 22.4731C74.5597 21.0637 75.6037 20.0588 76.6217 19.4585C77.6657 18.8581 78.6184 18.558 79.4798 18.558C81.1763 18.558 82.0246 19.4063 82.0246 21.1028C82.0246 21.4421 81.9072 22.2643 81.6723 23.5694C81.4635 24.6134 81.359 25.266 81.359 25.527C81.359 26.4405 81.6853 26.8973 82.3378 26.8973C83.0687 26.8973 84.0083 26.3231 85.1568 25.1746C85.4961 24.8353 85.8485 24.6656 86.2139 24.6656C86.5532 24.6656 86.8142 24.8223 86.9969 25.1355C87.2057 25.4226 87.3101 25.8141 87.3101 26.31C87.3101 27.2758 87.0491 28.0327 86.5271 28.5808C85.7963 29.3378 84.9349 29.9903 83.9431 30.5384C82.9773 31.0604 81.9463 31.3215 80.8501 31.3215C79.4667 31.3215 78.4096 30.9691 77.6788 30.2644C76.974 29.5596 76.6217 28.6069 76.6217 27.4063C76.6217 27.0148 76.6608 26.6232 76.7391 26.2317C76.7913 25.7097 76.8174 25.3573 76.8174 25.1746C76.8174 24.757 76.6739 24.5482 76.3868 24.5482C75.9953 24.5482 75.4732 24.9919 74.8207 25.8794C74.1943 26.7407 73.5678 27.8891 72.9414 29.3247C72.315 30.7603 71.806 32.2742 71.4145 33.8663C71.1274 35.0931 70.7881 35.9283 70.3965 36.372C70.0311 36.7897 69.4438 36.9985 68.6347 36.9985Z" fill="#FFEC42"/>
<path d="M99.2936 25.8402C100.024 25.8402 100.39 26.3883 100.39 27.4846C100.39 29.5466 98.7716 30.5776 95.5351 30.5776C94.9086 30.5776 94.0081 30.4601 92.8336 30.2252C93.1729 31.8435 93.447 33.6445 93.6558 35.6282C93.8907 37.5858 94.0081 39.204 94.0081 40.483C94.0081 43.3019 93.5514 45.4553 92.6378 46.943C91.7243 48.4308 90.5236 49.1747 89.0359 49.1747C87.1566 49.1747 85.8124 47.8435 85.0032 45.1812C84.2202 42.5189 83.8287 38.4993 83.8287 33.1224C83.8287 28.111 84.3637 23.0343 85.4339 17.8924C86.5301 12.7243 88.0179 8.45679 89.8972 5.08974C91.8026 1.69658 93.8907 0 96.1615 0C97.3883 0 98.341 0.548126 99.0196 1.64438C99.7243 2.74063 100.077 4.21535 100.077 6.06853C100.077 12.2023 96.4095 18.8842 89.075 26.1143C88.814 28.6722 88.6835 30.9169 88.6835 32.8484C88.6835 35.5368 88.7749 38.2905 88.9576 41.1094C89.1403 43.9544 89.4404 45.377 89.8581 45.377C90.6411 45.377 91.0326 44.0197 91.0326 41.3052C91.0326 39.2693 90.8891 37.2986 90.6019 35.3932C90.3409 33.4879 89.9755 31.4781 89.5057 29.3639C89.4796 29.0246 89.584 28.5939 89.8189 28.0719C90.0799 27.5498 90.3931 27.0931 90.7585 26.7015C91.124 26.31 91.4502 26.1143 91.7373 26.1143C92.2594 26.1143 92.8858 26.1404 93.6166 26.1926C93.8515 26.2187 94.1256 26.2317 94.4388 26.2317C95.4829 26.2317 96.6444 26.1404 97.9233 25.9577C98.1321 25.9316 98.354 25.9055 98.5889 25.8794C98.8238 25.8533 99.0587 25.8402 99.2936 25.8402ZM95.3393 3.87603C94.8695 3.87603 94.2822 4.67212 93.5775 6.26429C92.8988 7.85647 92.2202 9.97067 91.5416 12.6069C90.863 15.217 90.2757 17.9837 89.7798 20.9071C91.8678 18.5319 93.4731 16.0653 94.5954 13.5074C95.7178 10.9234 96.292 8.509 96.3181 6.26429C96.3181 4.67212 95.9918 3.87603 95.3393 3.87603Z" fill="#FFEC42"/>
<path d="M114.898 28.0719C115.237 28.0719 115.498 28.2285 115.681 28.5417C115.89 28.8549 115.994 29.2856 115.994 29.8337C115.994 30.8777 115.746 31.6869 115.25 32.2611C114.285 33.4357 112.914 34.5189 111.14 35.5107C109.391 36.5025 107.511 36.9985 105.502 36.9985C102.761 36.9985 100.634 36.2546 99.1199 34.7668C97.606 33.2791 96.8491 31.2432 96.8491 28.6591C96.8491 26.8582 97.2276 25.1877 97.9845 23.6477C98.7414 22.0816 99.7855 20.8418 101.117 19.9283C102.474 19.0147 104.001 18.558 105.697 18.558C107.211 18.558 108.425 19.0147 109.339 19.9283C110.252 20.8157 110.709 22.0294 110.709 23.5694C110.709 25.3704 110.056 26.9234 108.751 28.2285C107.472 29.5074 105.293 30.5254 102.213 31.2823C102.865 32.483 104.105 33.0833 105.932 33.0833C107.107 33.0833 108.438 32.6787 109.926 31.8696C111.44 31.0343 112.745 29.9511 113.841 28.62C114.154 28.2546 114.507 28.0719 114.898 28.0719ZM105.032 22.3948C104.066 22.3948 103.244 22.956 102.565 24.0784C101.913 25.2007 101.586 26.558 101.586 28.1502V28.2285C103.126 27.863 104.34 27.3149 105.228 26.5841C106.115 25.8533 106.559 25.005 106.559 24.0392C106.559 23.5433 106.415 23.1518 106.128 22.8647C105.867 22.5515 105.502 22.3948 105.032 22.3948Z" fill="#FFEC42"/>
<path d="M120.285 36.9985C117.727 36.9985 115.73 36.2807 114.294 34.8451C112.885 33.3835 112.18 31.465 112.18 29.0898C112.18 26.9756 112.598 25.1224 113.433 23.5302C114.268 21.9381 115.351 20.7113 116.683 19.85C118.014 18.9886 119.41 18.558 120.872 18.558C122.307 18.558 123.417 18.9886 124.2 19.85C125.009 20.6852 125.413 21.7684 125.413 23.0996C125.413 24.1958 125.165 25.1224 124.67 25.8794C124.2 26.6363 123.573 27.0148 122.79 27.0148C122.294 27.0148 121.89 26.8973 121.577 26.6624C121.289 26.4275 121.146 26.1012 121.146 25.6836C121.146 25.5009 121.172 25.2921 121.224 25.0572C121.276 24.8223 121.316 24.6526 121.342 24.5482C121.472 24.1567 121.537 23.7913 121.537 23.4519C121.537 23.1126 121.446 22.8516 121.263 22.6689C121.107 22.4862 120.872 22.3948 120.559 22.3948C119.958 22.3948 119.397 22.6689 118.875 23.217C118.353 23.7391 117.935 24.4568 117.622 25.3704C117.309 26.2839 117.152 27.2888 117.152 28.3851C117.152 31.4128 118.47 32.9267 121.107 32.9267C122.177 32.9267 123.325 32.5743 124.552 31.8696C125.805 31.1388 127.032 30.0556 128.232 28.62C128.546 28.2546 128.898 28.0719 129.289 28.0719C129.629 28.0719 129.89 28.2285 130.072 28.5417C130.281 28.8549 130.386 29.2856 130.386 29.8337C130.386 30.8255 130.138 31.6347 129.642 32.2611C128.415 33.775 126.94 34.9495 125.218 35.7848C123.521 36.5939 121.877 36.9985 120.285 36.9985Z" fill="#FFEC42"/>
<path d="M133.872 22.2774C133.82 23.5824 133.794 24.6004 133.794 25.3312C133.794 27.2105 133.885 28.6852 134.068 29.7554C134.277 30.7994 134.603 31.5564 135.047 32.0262C135.516 32.4699 136.156 32.6918 136.965 32.6918C137.383 32.6918 137.879 32.5613 138.453 32.3003C139.027 32.0392 139.549 31.6999 140.019 31.2823C140.306 31.0213 140.593 30.8908 140.88 30.8908C141.193 30.8908 141.441 31.0735 141.624 31.4389C141.833 31.7782 141.937 32.1958 141.937 32.6918C141.937 33.1877 141.833 33.6706 141.624 34.1404C141.441 34.6102 141.154 35.0017 140.763 35.3149C139.405 36.4373 137.866 36.9985 136.143 36.9985C133.663 36.9985 131.849 35.9675 130.701 33.9055C129.552 31.8174 128.978 29.1029 128.978 25.7619C128.978 24.6134 129.017 23.4519 129.096 22.2774H127.569C126.786 22.2774 126.25 22.1338 125.963 21.8467C125.702 21.5596 125.572 21.1028 125.572 20.4764C125.572 19.0147 126.159 18.2839 127.334 18.2839H129.565C130.009 15.4128 130.688 12.7896 131.601 10.4144C132.515 8.03917 133.611 6.14684 134.89 4.73737C136.195 3.32791 137.591 2.62317 139.079 2.62317C140.175 2.62317 141.037 3.10605 141.663 4.07179C142.29 5.03754 142.603 6.25124 142.603 7.71291C142.603 11.7586 140.906 15.2823 137.513 18.2839H141.898C142.316 18.2839 142.616 18.3753 142.799 18.558C142.981 18.7407 143.073 19.08 143.073 19.5759C143.073 21.3769 141.598 22.2774 138.649 22.2774H133.872ZM138.022 6.38175C137.631 6.38175 137.187 6.87767 136.691 7.86952C136.221 8.83526 135.764 10.1925 135.321 11.9413C134.903 13.664 134.551 15.5824 134.264 17.6966C135.804 16.3655 136.952 14.8777 137.709 13.2333C138.492 11.5628 138.883 10.049 138.883 8.6917C138.883 7.15173 138.596 6.38175 138.022 6.38175Z" fill="#FFEC42"/>
<path fill-rule="evenodd" clip-rule="evenodd" d="M74.5769 54.0327C57.8914 56.5504 42.9034 59.9469 32.987 62.7014C31.1245 63.2188 29.1952 62.1284 28.6779 60.2659C28.1605 58.4034 29.251 56.4742 31.1135 55.9568C44.5049 52.237 66.7449 47.4157 90.1202 44.9897C113.385 42.5752 138.275 42.4752 156.684 48.5537C158.424 49.1282 159.426 50.9471 158.983 52.7247C158.723 53.7662 158.018 54.5871 157.116 55.0258C163.155 55.9675 168.828 57.2051 173.855 58.8067C175.697 59.3934 176.714 61.3621 176.128 63.2039C175.541 65.0457 173.572 66.0631 171.73 65.4764C158.431 61.2397 139.722 59.6308 121.487 59.4085C103.33 59.1872 85.9892 60.3412 75.6122 61.4691C74.0958 61.634 72.6472 60.7977 72.0317 59.402C71.4161 58.0063 71.7754 56.3727 72.9197 55.364C73.4463 54.8999 73.9994 54.4564 74.5769 54.0327ZM134.261 52.7971C127.605 52.2724 120.465 51.9773 113.471 52.1119C110.267 52.1735 107.111 52.3252 104.062 52.583C109.67 52.4101 115.577 52.3359 121.573 52.409C125.766 52.4602 130.021 52.5833 134.261 52.7971Z" fill="#FFEC42"/>
<path d="M107.76 54.8923H106.206L102.826 47.7175L104.047 47.6797V56H102V47H104.368L107.365 53.407H106.625L109.623 47H111.941V56H109.869V47.6797L111.14 47.7175L107.76 54.8923Z" fill="black"/>
<path d="M119.894 56H113.455V47H119.894V48.8H115.577V54.2H119.894V56ZM119.659 52.3748H115.453V50.5748H119.659V52.3748Z" fill="black"/>
<path d="M127.651 56H121.212V47H127.651V48.8H123.334V54.2H127.651V56ZM127.417 52.3748H123.211V50.5748H127.417V52.3748Z" fill="black"/>
<path d="M133.348 56H131.227V48.6993H133.348V56ZM136 48.8252H128.575V47H136V48.8252Z" fill="black"/>
<path d="M32.1811 16.6428C32.1811 18.8614 31.6069 20.8973 30.4584 22.7505C29.31 24.6037 27.6395 26.1175 25.447 27.2921C23.2545 28.4666 20.6444 29.1583 17.6166 29.3671L15.9331 38.8027C15.2806 42.4308 13.5057 44.2448 10.6084 44.2448C9.01627 44.2448 7.54155 43.775 6.18429 42.8354C4.85313 41.8957 3.78298 40.4601 2.97384 38.5287C2.1647 36.5972 1.76013 34.222 1.76013 31.403C1.76013 26.1045 2.60842 21.6151 4.305 17.9348C6.02768 14.2284 8.32459 11.4617 11.1957 9.63461C14.093 7.78143 17.2773 6.85483 20.7488 6.85483C23.2023 6.85483 25.2773 7.2855 26.9739 8.14684C28.6966 9.00818 29.9886 10.1827 30.8499 11.6705C31.7374 13.1322 32.1811 14.7896 32.1811 16.6428ZM18.3214 25.3345C23.6721 24.6559 26.3475 21.8761 26.3475 16.9952C26.3475 15.2725 25.7732 13.8761 24.6248 12.8059C23.5024 11.7097 21.7537 11.1615 19.3785 11.1615C16.69 11.1615 14.3409 12.0098 12.3311 13.7064C10.3474 15.403 8.80746 17.7651 7.71121 20.7929C6.64106 23.7945 6.10598 27.2268 6.10598 31.0898C6.10598 32.7081 6.26259 34.1437 6.57581 35.3965C6.91512 36.6494 7.33274 37.6282 7.82866 38.3329C8.35069 39.0115 8.84661 39.3508 9.31643 39.3508C9.96896 39.3508 10.4649 38.4504 10.8042 36.6494L12.0962 29.2497C11.0783 29.0931 10.6345 29.0278 10.765 29.0539C9.98201 28.9234 9.47304 28.6885 9.23813 28.3492C9.00322 27.9838 8.88576 27.527 8.88576 26.9789C8.88576 26.4046 9.04237 25.9479 9.35558 25.6086C9.6949 25.2692 10.1517 25.0996 10.7259 25.0996C10.9869 25.0996 11.1827 25.1126 11.3132 25.1387C11.9396 25.2431 12.4225 25.3084 12.7618 25.3345C13.1011 23.2986 13.584 20.571 14.2104 17.1518C14.367 16.2643 14.7194 15.6379 15.2675 15.2725C15.8417 14.881 16.5073 14.6852 17.2643 14.6852C18.1256 14.6852 18.739 14.8549 19.1044 15.1942C19.4959 15.5074 19.6917 16.0164 19.6917 16.7211C19.6917 17.1387 19.6656 17.478 19.6134 17.739L18.3214 25.3345Z" fill="black"/>
<path d="M35.0046 40.173C33.8301 40.173 32.8643 39.638 32.1074 38.5678C31.3765 37.4716 31.0111 36.1143 31.0111 34.496C31.0111 32.5384 31.1416 30.7505 31.4026 29.1322C31.6637 27.4878 32.0943 25.7521 32.6947 23.925C32.9557 23.142 33.3211 22.5808 33.7909 22.2415C34.2607 21.9022 35.0046 21.7325 36.0226 21.7325C36.5968 21.7325 36.9883 21.8239 37.1971 22.0066C37.432 22.1893 37.5495 22.4634 37.5495 22.8288C37.5495 23.0376 37.4059 23.7423 37.1188 24.943C36.8578 25.9087 36.649 26.7831 36.4924 27.5661C35.9704 30.3068 35.7093 32.1339 35.7093 33.0474C35.7093 33.5955 35.7746 33.987 35.9051 34.222C36.0356 34.4308 36.2444 34.5352 36.5315 34.5352C36.9231 34.5352 37.4059 34.1437 37.9802 33.3606C38.5805 32.5776 39.2069 31.39 39.8594 29.7978C40.5381 28.2056 41.1906 26.248 41.817 23.925C42.0258 23.142 42.3391 22.5808 42.7567 22.2415C43.2004 21.9022 43.8529 21.7325 44.7143 21.7325C45.3146 21.7325 45.7322 21.8108 45.9671 21.9674C46.202 22.0979 46.3195 22.359 46.3195 22.7505C46.3195 23.403 45.9932 25.1909 45.3407 28.1143C44.6099 31.4552 44.2444 33.5172 44.2444 34.3003C44.2444 34.7962 44.3488 35.1877 44.5577 35.4748C44.7665 35.7358 45.0405 35.8663 45.3798 35.8663C45.9019 35.8663 46.5152 35.5531 47.22 34.9267C47.9508 34.2742 48.9166 33.2301 50.1172 31.7945C50.4304 31.4291 50.7828 31.2464 51.1743 31.2464C51.5136 31.2464 51.7746 31.403 51.9573 31.7162C52.1662 32.0295 52.2706 32.4601 52.2706 33.0083C52.2706 34.0523 52.0226 34.8614 51.5267 35.4357C50.4043 36.819 49.1906 37.9544 47.8856 38.8419C46.6066 39.7293 45.1449 40.173 43.5006 40.173C42.2477 40.173 41.3211 39.6902 40.7208 38.7244C40.1466 37.7587 39.8594 36.4014 39.8594 34.6526C39.4157 36.4275 38.7501 37.7978 37.8627 38.7636C36.9753 39.7032 36.0226 40.173 35.0046 40.173Z" fill="black"/>
<path d="M51.8757 40.173C50.8838 40.173 50.1791 39.651 49.7615 38.607C49.37 37.5629 49.1742 35.8924 49.1742 33.5955C49.1742 30.2024 49.6571 26.9789 50.6228 23.925C50.8577 23.1681 51.2362 22.62 51.7582 22.2807C52.3064 21.9152 53.0633 21.7325 54.029 21.7325C54.5511 21.7325 54.9165 21.7978 55.1253 21.9283C55.3341 22.0588 55.4385 22.3068 55.4385 22.6722C55.4385 23.0898 55.2427 24.0294 54.8512 25.4911C54.5902 26.5351 54.3814 27.4487 54.2248 28.2317C54.0682 29.0148 53.9377 29.9805 53.8333 31.129C54.6946 28.8843 55.6604 27.0572 56.7305 25.6477C57.8007 24.2382 58.8447 23.2333 59.8627 22.633C60.9067 22.0327 61.8594 21.7325 62.7207 21.7325C64.4173 21.7325 65.2656 22.5808 65.2656 24.2774C65.2656 24.6167 65.1481 25.4389 64.9132 26.744C64.7044 27.788 64.6 28.4405 64.6 28.7015C64.6 29.6151 64.9263 30.0719 65.5788 30.0719C66.3097 30.0719 67.2493 29.4976 68.3977 28.3492C68.7371 28.0099 69.0894 27.8402 69.4548 27.8402C69.7942 27.8402 70.0552 27.9968 70.2379 28.31C70.4467 28.5971 70.5511 28.9887 70.5511 29.4846C70.5511 30.4503 70.2901 31.2073 69.7681 31.7554C69.0372 32.5123 68.1759 33.1649 67.184 33.713C66.2183 34.235 65.1873 34.496 64.091 34.496C62.7077 34.496 61.6506 34.1437 60.9198 33.4389C60.215 32.7342 59.8627 31.7815 59.8627 30.5808C59.8627 30.1893 59.9018 29.7978 59.9801 29.4063C60.0323 28.8843 60.0584 28.5319 60.0584 28.3492C60.0584 27.9316 59.9149 27.7228 59.6277 27.7228C59.2362 27.7228 58.7142 28.1665 58.0617 29.0539C57.4352 29.9153 56.8088 31.0637 56.1824 32.4993C55.556 33.9348 55.047 35.4487 54.6555 37.0409C54.3683 38.2676 54.029 39.1029 53.6375 39.5466C53.2721 39.9642 52.6848 40.173 51.8757 40.173Z" fill="black"/>
<path d="M69.6928 40.173C68.701 40.173 67.9962 39.651 67.5786 38.607C67.1871 37.5629 66.9913 35.8924 66.9913 33.5955C66.9913 30.2024 67.4742 26.9789 68.44 23.925C68.6749 23.1681 69.0533 22.62 69.5754 22.2807C70.1235 21.9152 70.8804 21.7325 71.8462 21.7325C72.3682 21.7325 72.7336 21.7978 72.9424 21.9283C73.1512 22.0588 73.2556 22.3068 73.2556 22.6722C73.2556 23.0898 73.0599 24.0294 72.6684 25.4911C72.4073 26.5351 72.1985 27.4487 72.0419 28.2317C71.8853 29.0148 71.7548 29.9805 71.6504 31.129C72.5117 28.8843 73.4775 27.0572 74.5476 25.6477C75.6178 24.2382 76.6618 23.2333 77.6798 22.633C78.7238 22.0327 79.6765 21.7325 80.5379 21.7325C82.2345 21.7325 83.0827 22.5808 83.0827 24.2774C83.0827 24.6167 82.9653 25.4389 82.7304 26.744C82.5216 27.788 82.4172 28.4405 82.4172 28.7015C82.4172 29.6151 82.7434 30.0719 83.396 30.0719C84.1268 30.0719 85.0664 29.4976 86.2149 28.3492C86.5542 28.0099 86.9066 27.8402 87.272 27.8402C87.6113 27.8402 87.8723 27.9968 88.055 28.31C88.2638 28.5971 88.3682 28.9887 88.3682 29.4846C88.3682 30.4503 88.1072 31.2073 87.5852 31.7554C86.8544 32.5123 85.993 33.1649 85.0012 33.713C84.0354 34.235 83.0044 34.496 81.9082 34.496C80.5248 34.496 79.4677 34.1437 78.7369 33.4389C78.0322 32.7342 77.6798 31.7815 77.6798 30.5808C77.6798 30.1893 77.7189 29.7978 77.7972 29.4063C77.8494 28.8843 77.8755 28.5319 77.8755 28.3492C77.8755 27.9316 77.732 27.7228 77.4449 27.7228C77.0534 27.7228 76.5313 28.1665 75.8788 29.0539C75.2524 29.9153 74.6259 31.0637 73.9995 32.4993C73.3731 33.9348 72.8641 35.4487 72.4726 37.0409C72.1855 38.2676 71.8462 39.1029 71.4546 39.5466C71.0892 39.9642 70.5019 40.173 69.6928 40.173Z" fill="black"/>
<path d="M100.352 29.0148C101.083 29.0148 101.448 29.5629 101.448 30.6591C101.448 32.7211 99.8297 33.7521 96.5932 33.7521C95.9667 33.7521 95.0663 33.6347 93.8917 33.3998C94.231 35.018 94.5051 36.819 94.7139 38.8027C94.9488 40.7603 95.0663 42.3786 95.0663 43.6575C95.0663 46.4765 94.6095 48.6298 93.6959 50.1176C92.7824 51.6054 91.5817 52.3493 90.094 52.3493C88.2147 52.3493 86.8705 51.0181 86.0613 48.3558C85.2783 45.6934 84.8868 41.6739 84.8868 36.297C84.8868 31.2856 85.4219 26.2089 86.492 21.0669C87.5883 15.8989 89.076 11.6314 90.9553 8.2643C92.8607 4.87114 94.9488 3.17456 97.2196 3.17456C98.4464 3.17456 99.3991 3.72269 100.078 4.81894C100.782 5.91519 101.135 7.38991 101.135 9.24309C101.135 15.3769 97.4676 22.0588 90.1331 29.2888C89.8721 31.8467 89.7416 34.0914 89.7416 36.0229C89.7416 38.7114 89.833 41.465 90.0157 44.284C90.1984 47.129 90.4985 48.5515 90.9162 48.5515C91.6992 48.5515 92.0907 47.1943 92.0907 44.4797C92.0907 42.4438 91.9472 40.4732 91.66 38.5678C91.399 36.6624 91.0336 34.6526 90.5638 32.5384C90.5377 32.1991 90.6421 31.7684 90.877 31.2464C91.138 30.7244 91.4512 30.2676 91.8167 29.8761C92.1821 29.4846 92.5083 29.2888 92.7954 29.2888C93.3175 29.2888 93.9439 29.3149 94.6747 29.3671C94.9096 29.3932 95.1837 29.4063 95.4969 29.4063C96.541 29.4063 97.7025 29.3149 98.9814 29.1322C99.1902 29.1061 99.4121 29.08 99.647 29.0539C99.8819 29.0278 100.117 29.0148 100.352 29.0148ZM96.3974 7.05059C95.9276 7.05059 95.3403 7.84668 94.6356 9.43885C93.9569 11.031 93.2783 13.1452 92.5997 15.7814C91.9211 18.3916 91.3338 21.1583 90.8379 24.0816C92.926 21.7064 94.5312 19.2399 95.6535 16.6819C96.7759 14.0979 97.3501 11.6836 97.3762 9.43885C97.3762 7.84668 97.0499 7.05059 96.3974 7.05059Z" fill="black"/>
<path d="M115.956 31.2464C116.296 31.2464 116.557 31.403 116.739 31.7162C116.948 32.0295 117.052 32.4601 117.052 33.0083C117.052 34.0523 116.804 34.8614 116.309 35.4357C115.343 36.6102 113.973 37.6934 112.198 38.6853C110.449 39.6771 108.57 40.173 106.56 40.173C103.819 40.173 101.692 39.4291 100.178 37.9414C98.6641 36.4536 97.9072 34.4177 97.9072 31.8337C97.9072 30.0327 98.2857 28.3622 99.0426 26.8223C99.7995 25.2562 100.844 24.0164 102.175 23.1028C103.532 22.1893 105.059 21.7325 106.756 21.7325C108.269 21.7325 109.483 22.1893 110.397 23.1028C111.31 23.9903 111.767 25.204 111.767 26.744C111.767 28.5449 111.114 30.098 109.809 31.403C108.53 32.682 106.351 33.6999 103.271 34.4569C103.924 35.6575 105.163 36.2579 106.99 36.2579C108.165 36.2579 109.496 35.8533 110.984 35.0441C112.498 34.2089 113.803 33.1257 114.899 31.7945C115.212 31.4291 115.565 31.2464 115.956 31.2464ZM106.09 25.5694C105.124 25.5694 104.302 26.1306 103.623 27.2529C102.971 28.3753 102.645 29.7325 102.645 31.3247V31.403C104.185 31.0376 105.398 30.4895 106.286 29.7586C107.173 29.0278 107.617 28.1795 107.617 27.2138C107.617 26.7179 107.473 26.3263 107.186 26.0392C106.925 25.726 106.56 25.5694 106.09 25.5694Z" fill="black"/>
<path d="M121.343 40.173C118.785 40.173 116.788 39.4552 115.352 38.0197C113.943 36.558 113.238 34.6396 113.238 32.2644C113.238 30.1502 113.656 28.297 114.491 26.7048C115.326 25.1126 116.409 23.8859 117.741 23.0245C119.072 22.1632 120.468 21.7325 121.93 21.7325C123.365 21.7325 124.475 22.1632 125.258 23.0245C126.067 23.8598 126.472 24.943 126.472 26.2741C126.472 27.3704 126.224 28.297 125.728 29.0539C125.258 29.8109 124.631 30.1893 123.848 30.1893C123.352 30.1893 122.948 30.0719 122.635 29.837C122.348 29.602 122.204 29.2758 122.204 28.8582C122.204 28.6754 122.23 28.4666 122.282 28.2317C122.334 27.9968 122.374 27.8272 122.4 27.7228C122.53 27.3312 122.595 26.9658 122.595 26.6265C122.595 26.2872 122.504 26.0262 122.321 25.8435C122.165 25.6608 121.93 25.5694 121.617 25.5694C121.016 25.5694 120.455 25.8435 119.933 26.3916C119.411 26.9136 118.994 27.6314 118.68 28.5449C118.367 29.4585 118.21 30.4634 118.21 31.5596C118.21 34.5874 119.529 36.1012 122.165 36.1012C123.235 36.1012 124.383 35.7489 125.61 35.0441C126.863 34.3133 128.09 33.2301 129.29 31.7945C129.604 31.4291 129.956 31.2464 130.348 31.2464C130.687 31.2464 130.948 31.403 131.131 31.7162C131.339 32.0295 131.444 32.4601 131.444 33.0083C131.444 34.0001 131.196 34.8092 130.7 35.4357C129.473 36.9495 127.998 38.1241 126.276 38.9593C124.579 39.7685 122.935 40.173 121.343 40.173Z" fill="black"/>
<path d="M134.93 25.4519C134.878 26.757 134.852 27.775 134.852 28.5058C134.852 30.3851 134.943 31.8598 135.126 32.9299C135.335 33.974 135.661 34.7309 136.105 35.2008C136.575 35.6445 137.214 35.8663 138.023 35.8663C138.441 35.8663 138.937 35.7358 139.511 35.4748C140.085 35.2138 140.607 34.8745 141.077 34.4569C141.364 34.1959 141.651 34.0654 141.938 34.0654C142.252 34.0654 142.499 34.2481 142.682 34.6135C142.891 34.9528 142.995 35.3704 142.995 35.8663C142.995 36.3623 142.891 36.8451 142.682 37.315C142.499 37.7848 142.212 38.1763 141.821 38.4895C140.464 39.6119 138.924 40.173 137.201 40.173C134.721 40.173 132.907 39.142 131.759 37.08C130.61 34.9919 130.036 32.2774 130.036 28.9365C130.036 27.788 130.075 26.6265 130.154 25.4519H128.627C127.844 25.4519 127.309 25.3084 127.021 25.0213C126.76 24.7342 126.63 24.2774 126.63 23.651C126.63 22.1893 127.217 21.4585 128.392 21.4585H130.623C131.067 18.5873 131.746 15.9642 132.659 13.5889C133.573 11.2137 134.669 9.3214 135.948 7.91193C137.253 6.50247 138.65 5.79773 140.137 5.79773C141.234 5.79773 142.095 6.28061 142.721 7.24635C143.348 8.2121 143.661 9.4258 143.661 10.8875C143.661 14.9332 141.964 18.4568 138.571 21.4585H142.956C143.374 21.4585 143.674 21.5498 143.857 21.7325C144.039 21.9152 144.131 22.2546 144.131 22.7505C144.131 24.5515 142.656 25.4519 139.707 25.4519H134.93ZM139.08 9.55631C138.689 9.55631 138.245 10.0522 137.749 11.0441C137.279 12.0098 136.822 13.3671 136.379 15.1159C135.961 16.8385 135.609 18.757 135.322 20.8712C136.862 19.54 138.01 18.0523 138.767 16.4079C139.55 14.7374 139.942 13.2235 139.942 11.8663C139.942 10.3263 139.654 9.55631 139.08 9.55631Z" fill="black"/>
</svg>
